<svg viewBox="0 0 47 36" fill="none" xmlns="http://www.w3.org/2000/svg">
<path d="M24.2839 15.0589C24.2839 16.4411 23.4402 17.2366 21.9536 17.2366H20.0009V12.8813H21.9616C23.4402 12.8813 24.2839 13.6687 24.2839 15.0589ZM28.1009 20.0893C28.1009 20.7563 28.6795 21.1902 29.5875 21.1902C30.7446 21.1902 31.6125 20.4589 31.6125 19.4304V18.8116L29.7241 18.9321C28.6554 19.0045 28.1009 19.3982 28.1009 20.0893ZM46.2857 3.85714V32.1429C46.2857 34.2723 44.558 36 42.4286 36H3.85714C1.72768 36 0 34.2723 0 32.1429V3.85714C0 1.72768 1.72768 0 3.85714 0H42.4286C44.558 0 46.2857 1.72768 46.2857 3.85714ZM10.2696 13.3554C10.9446 13.4116 11.6196 13.0179 12.0455 12.5196C12.4634 12.0054 12.7366 11.3143 12.6643 10.6152C12.0696 10.6393 11.3304 11.0089 10.9045 11.5232C10.5187 11.9652 10.1893 12.6804 10.2696 13.3554ZM15.1393 19.342C15.1232 19.3259 13.5643 18.7312 13.5482 16.9312C13.5321 15.4286 14.7777 14.7054 14.8339 14.6652C14.1268 13.6205 13.0339 13.508 12.6562 13.4839C11.6759 13.4277 10.8402 14.0384 10.3741 14.0384C9.9 14.0384 9.19286 13.508 8.42143 13.5241C7.41696 13.5402 6.47679 14.1107 5.97054 15.0187C4.91786 16.8348 5.69732 19.5187 6.71786 20.9973C7.21607 21.7286 7.81875 22.5321 8.60625 22.5C9.35357 22.4679 9.65089 22.0179 10.5509 22.0179C11.4589 22.0179 11.7161 22.5 12.5036 22.492C13.3232 22.4759 13.8295 21.7607 14.3357 21.0295C14.8902 20.1938 15.1232 19.3902 15.1393 19.342ZM26.0196 15.0509C26.0196 12.9134 24.533 11.4509 22.4116 11.4509H18.2973V22.4116H20.0009V18.667H22.3554C24.5089 18.667 26.0196 17.1884 26.0196 15.0509ZM33.2518 16.9554C33.2518 15.3723 31.9821 14.3518 30.0375 14.3518C28.2295 14.3518 26.8955 15.3884 26.8473 16.8027H28.3821C28.5107 16.1277 29.1375 15.6857 29.9893 15.6857C31.0339 15.6857 31.6125 16.1679 31.6125 17.0679V17.6705L29.4911 17.7991C27.5143 17.9196 26.4455 18.7313 26.4455 20.1375C26.4455 21.5598 27.5464 22.5 29.1295 22.5C30.1982 22.5 31.1866 21.9616 31.6366 21.1018H31.6688V22.4196H33.2438V16.9554H33.2518ZM41.4643 14.4562H39.7366L37.7357 20.933H37.7036L35.7027 14.4562H33.9107L36.7955 22.4357L36.6429 22.9179C36.3857 23.7375 35.9598 24.0589 35.2045 24.0589C35.0679 24.0589 34.8107 24.0429 34.7062 24.0348V25.3527C34.8027 25.3848 35.2286 25.3929 35.3571 25.3929C37.0205 25.3929 37.8 24.758 38.483 22.8375L41.4643 14.4562Z" fill="#F9F9F9"/>
</svg>
