<svg viewBox="0 0 25 25" fill="none" xmlns="http://www.w3.org/2000/svg">
<path d="M1.37891 0.5H23.6211C24.1064 0.500258 24.4997 0.893614 24.5 1.37891V23.6211C24.4997 24.1064 24.1064 24.4997 23.6211 24.5H1.37891C0.893614 24.4997 0.500258 24.1064 0.5 23.6211V1.37891C0.500258 0.893614 0.893614 0.500258 1.37891 0.5Z" fill="#3D5A98" stroke="#F9F9F9"/>
<path d="M18.2032 4.27441H18.2061C19.0107 4.27032 19.8148 4.30545 20.6163 4.375V6.79785H19.1172C18.2679 6.79793 17.6215 6.99983 17.213 7.48535C16.8208 7.95154 16.7481 8.56813 16.7481 9.13574V12.0439H20.4151L20.0577 14.8164H16.7481V24.498H13.8448V14.8164H10.5958V12.0439H13.8448V8.76172C13.8449 7.24883 14.3059 6.14149 15.046 5.41211C15.7879 4.68093 16.8658 4.27441 18.2032 4.27441Z" fill="white" stroke="#F9F9F9"/>
</svg>
