<svg viewBox="0 0 81 24" fill="none" xmlns="http://www.w3.org/2000/svg">
<path d="M7.74846 19.6329C10.5825 19.6329 12.8801 17.3281 12.8801 14.4851C12.8801 11.642 10.5825 9.33691 7.74846 9.33691H6.97501C9.80922 9.33691 12.1068 11.6422 12.1068 14.4851C12.1068 17.328 9.80922 19.6329 6.97501 19.6329H7.74846Z" fill="#FF004F"/>
<path d="M6.90525 9.33691H6.1321C3.29805 9.33691 1 11.6422 1 14.4851C1 17.328 3.29805 19.6329 6.1321 19.6329H6.90525C4.07072 19.6329 1.77314 17.3281 1.77314 14.4851C1.77314 11.642 4.07072 9.33691 6.90525 9.33691Z" fill="#00F2EA"/>
<path d="M14.3437 7.66171C15.8682 8.76283 17.7348 9.41067 19.7511 9.41067V6.32347C18.6462 6.08471 17.6426 5.5031 16.8802 4.65979C15.598 3.85099 14.674 2.51659 14.4032 0.954834H11.5767V16.6201C11.5704 18.4464 10.104 19.9251 8.29609 19.9251C7.23059 19.9251 6.2839 19.4116 5.68447 18.6164C4.61407 18.0702 3.87985 16.9491 3.87985 15.6542C3.87985 13.8228 5.34845 12.338 7.16051 12.338C7.5076 12.338 7.84236 12.3928 8.15608 12.4934V9.37243C4.26491 9.45371 1.1355 12.6676 1.1355 16.6203C1.1355 18.5934 1.91481 20.382 3.17964 21.6891C4.36013 22.4906 5.75034 22.9176 7.17221 22.9152C11.133 22.9152 14.3439 19.6694 14.3439 15.6656L14.3437 7.66171Z" fill="white"/>
<path d="M15.4792 8.61659C17.0032 9.71772 18.8702 10.3657 20.8864 10.3657V6.44363C20.5048 6.44366 20.1242 6.40344 19.7509 6.32363V9.41084C17.7347 9.41084 15.8681 8.76283 14.3436 7.66171V15.6657C14.3436 19.6697 11.1328 22.9153 7.17198 22.9153C5.6942 22.9153 4.32053 22.4636 3.17957 21.6891C4.48174 23.0352 6.29807 23.8702 8.30724 23.8702C12.2683 23.8702 15.4794 20.6246 15.4794 16.6206V8.61644M16.8803 4.65963C16.079 3.77702 15.5868 2.65257 15.4792 1.45931V0.954834H14.4031C14.674 2.51675 15.5979 3.85099 16.8801 4.65979M5.68471 18.6164C5.24957 18.0398 5.01438 17.3342 5.01551 16.6088C5.01551 14.7776 6.48411 13.2928 8.29617 13.2928C8.63378 13.2928 8.96948 13.3449 9.29127 13.4481V9.43851C8.91519 9.38653 8.53566 9.36438 8.15616 9.37227V12.4934C7.83415 12.3902 7.49836 12.3378 7.16059 12.338C5.34853 12.338 3.87993 13.8227 3.87993 15.6542C3.87993 16.9491 4.61399 18.0702 5.68471 18.6164Z" fill="#FF004F"/>
<path d="M19.7509 6.3232V5.48848C18.736 5.48992 17.7412 5.20266 16.8801 4.65952C17.6423 5.50303 18.6459 6.08456 19.7509 6.3232ZM14.4031 0.95488C14.3773 0.805675 14.3574 0.655472 14.3436 0.50464V0H10.4409V15.6654C10.4346 17.4914 8.96869 18.9701 7.16043 18.9701C6.64781 18.9709 6.14218 18.8498 5.6844 18.6165C6.28399 19.4117 7.23052 19.925 8.29601 19.925C10.1038 19.925 11.5703 18.4464 11.5767 16.6202V0.95472L14.4031 0.95488ZM8.15616 9.37248V8.48384C7.83004 8.43885 7.50128 8.4163 7.17214 8.41632C3.21105 8.416 0 11.6618 0 15.6654C0 18.1754 1.26199 20.3875 3.17972 21.6888C1.91489 20.3819 1.13558 18.5931 1.13558 16.62C1.13558 12.6675 4.26484 9.45376 8.15616 9.37248Z" fill="#00F2EA"/>
<path d="M42.1967 7.01017V12.8625L45.1487 9.90089H48.7335L45.0079 13.5681L49.1555 19.6327H45.9925L43.1107 15.4718L42.1967 16.3187V19.5623H39.2442V7.01017H42.1967ZM74.0405 7.01017V12.8625L76.993 9.90089H80.5779L76.8522 13.5681L81 19.633H77.8366L74.9541 15.4721L74.0405 16.319V19.5626H71.0875V7.01017H74.0405ZM64.1987 9.33689C67.0329 9.33689 69.3308 11.6422 69.3308 14.4851C69.3308 17.3279 67.0329 19.6329 64.1987 19.6329H64.1288C61.2945 19.6329 58.997 17.3281 58.997 14.4851C58.997 11.642 61.2945 9.33689 64.1288 9.33689H64.1987ZM34.4646 7.01017L33.6209 9.69001H31.1608V19.5625H28.1374V9.61961H25.1152V7.01001L34.4646 7.01017ZM59.2083 7.01017L58.3649 9.69001H55.9049V19.5625H52.8815V9.61961H49.8593V7.01001L59.2083 7.01017ZM37.9786 11.0298V19.5626H35.0271V11.0298H37.9786ZM64.1644 11.982C62.7861 11.982 61.6682 13.1022 61.6682 14.4851C61.6682 15.8679 62.7861 16.9886 64.1644 16.9889C65.5418 16.9889 66.6595 15.8679 66.6595 14.4851C66.6595 13.1022 65.5418 11.982 64.1644 11.982ZM36.5022 7.01017C37.3181 7.01017 37.9786 7.67337 37.9786 8.49097C37.9786 9.30857 37.3185 9.97177 36.5022 9.97177C35.687 9.97145 35.0271 9.30873 35.0271 8.49097C35.0271 7.67337 35.687 7.01017 36.5022 7.01017Z" fill="#F9F9F9"/>
</svg>
