<svg viewBox="0 0 21 21" fill="none" xmlns="http://www.w3.org/2000/svg">
<path d="M10.5 21C16.299 21 21 16.299 21 10.5C21 4.70101 16.299 0 10.5 0C4.70101 0 0 4.70101 0 10.5C0 16.299 4.70101 21 10.5 21Z" fill="#01426E"/>
<path d="M9 6.5C9 5.94772 9.44772 5.5 10 5.5H11C11.5523 5.5 12 5.94772 12 6.5V14.5C12 15.0523 11.5523 15.5 11 15.5H10C9.44772 15.5 9 15.0523 9 14.5V6.5Z" fill="white"/>
<path d="M5.5 10C5.5 9.44772 5.94772 9 6.5 9H14.5C15.0523 9 15.5 9.44772 15.5 10V11C15.5 11.5523 15.0523 12 14.5 12H6.5C5.94772 12 5.5 11.5523 5.5 11V10Z" fill="white"/>
</svg>
