<svg viewBox="0 0 76 73" fill="none" xmlns="http://www.w3.org/2000/svg">
<path d="M37.7502 69.961H13.1185C10.1034 69.961 7.21176 68.7633 5.07975 66.6313C2.94775 64.4993 1.75 61.6077 1.75 58.5925V13.1185C1.75 10.1034 2.94775 7.21177 5.07975 5.07976C7.21176 2.94775 10.1034 1.75 13.1185 1.75H58.5924C61.6076 1.75 64.4992 2.94775 66.6312 5.07976C68.7632 7.21177 69.9609 10.1034 69.9609 13.1185V37.7503" stroke="#01426E" stroke-width="3.5" stroke-linecap="round" stroke-linejoin="round"/>
<path d="M1.75 51.0143L20.6975 32.0668C24.2141 28.6828 28.5493 28.6828 32.066 32.0668L45.3292 45.3301" stroke="#01426E" stroke-width="3.5" stroke-linecap="round" stroke-linejoin="round"/>
<path d="M43.4341 41.7203L47.2236 37.9308C49.7966 35.4563 52.8055 34.7893 55.6135 35.9376M62.3816 70.3217V49.2994M62.3816 49.2994L73.7501 60.6679M62.3816 49.2994L51.0131 60.6679" stroke="#01426E" stroke-width="3.5" stroke-linecap="round" stroke-linejoin="round"/>
<path d="M58.1506 19.1724V17.9299C58.1191 17.9302 58.1227 17.9073 58.1227 17.8873C58.1229 17.8401 58.1241 17.7928 58.1237 17.7456C58.1234 17.7082 58.1241 17.673 58.1042 17.6358C58.089 17.6073 58.098 17.5657 58.0968 17.5299C58.0959 17.5013 58.102 17.4724 58.0752 17.4489C58.0663 17.4409 58.0665 17.4199 58.0666 17.4049C58.067 17.3585 58.0789 17.311 58.0441 17.2698C58.0381 17.2628 58.0406 17.2482 58.04 17.2371C58.0373 17.1891 58.0539 17.1375 58.0147 17.0961C58.0321 17.0345 57.9621 16.9885 57.984 16.9252C57.9865 16.9177 57.9763 16.9055 57.9713 16.8958C57.9663 16.886 57.9555 16.8765 57.9559 16.8672C57.9586 16.8155 57.9426 16.7681 57.9323 16.7186C57.9193 16.6557 57.8994 16.5976 57.8764 16.5386C57.86 16.4968 57.8636 16.4439 57.8392 16.4093C57.8034 16.3581 57.8233 16.2973 57.7912 16.2452C57.76 16.1946 57.7518 16.1302 57.7303 16.0731C57.7196 16.0445 57.7013 16.0189 57.6876 15.9914C57.6818 15.9798 57.6739 15.9661 57.6755 15.9546C57.681 15.9162 57.6629 15.8862 57.6491 15.853C57.6078 15.7533 57.5549 15.658 57.5165 15.5586C57.4812 15.4675 57.4374 15.3819 57.3952 15.2949C57.3693 15.2418 57.335 15.1929 57.3071 15.1407C57.2697 15.0706 57.2354 14.9988 57.1986 14.9284C57.1885 14.9091 57.1762 14.8902 57.1618 14.8739C57.1371 14.8458 57.1014 14.825 57.1107 14.7783C57.1121 14.7714 57.1042 14.7622 57.0994 14.7549C57.0646 14.7015 57.0359 14.6423 56.9928 14.5968C56.9411 14.5423 56.9104 14.4773 56.8708 14.4164C56.8133 14.3277 56.7371 14.2513 56.6802 14.1624C56.6797 14.1617 56.6792 14.1612 56.6787 14.1605C56.6456 14.1098 56.5971 14.0723 56.5689 14.0224C56.5326 13.9577 56.4698 13.9182 56.4323 13.8591C56.3431 13.7185 56.2103 13.6203 56.0991 13.5015C55.987 13.3817 55.8678 13.2686 55.7516 13.1526C55.7452 13.1462 55.7392 13.136 55.7319 13.1348C55.6755 13.1253 55.6521 13.0742 55.613 13.0431C55.5977 13.0309 55.5803 13.0213 55.5636 13.011C55.558 13.0075 55.5479 13.0069 55.5461 13.0025C55.5218 12.9411 55.4558 12.9227 55.416 12.8762C55.3853 12.8403 55.3415 12.8116 55.2981 12.792C55.2654 12.7773 55.2448 12.7533 55.2191 12.7327C55.169 12.6927 55.1156 12.6571 55.0655 12.6172C54.9965 12.5622 54.911 12.5353 54.844 12.4739C54.7867 12.4214 54.7147 12.3838 54.6417 12.3506C54.5738 12.3199 54.5112 12.2775 54.4467 12.2398C54.4019 12.2136 54.3582 12.1856 54.3128 12.1606C54.2941 12.1503 54.2721 12.1459 54.2518 12.1383C54.2396 12.1338 54.2247 12.1313 54.2163 12.1227C54.1568 12.0617 54.0756 12.0376 54.0021 12.0051C53.9614 11.987 53.9184 11.9679 53.8754 11.9539C53.8309 11.9394 53.7942 11.9174 53.7548 11.8933C53.7001 11.86 53.6317 11.8492 53.5698 11.827C53.5245 11.8108 53.4804 11.7907 53.4351 11.7743C53.3775 11.7535 53.3189 11.7355 53.2613 11.715C53.222 11.7011 53.1836 11.6851 53.1447 11.6702C53.1364 11.667 53.128 11.6616 53.1197 11.6617C53.0538 11.6627 52.9977 11.6318 52.9383 11.6097C52.8935 11.5931 52.845 11.5866 52.7982 11.5749C52.7834 11.5712 52.7693 11.5648 52.7547 11.5605C52.7379 11.5554 52.7211 11.5486 52.7039 11.5474C52.6668 11.5447 52.6273 11.5578 52.5965 11.5233C52.591 11.5171 52.5747 11.5215 52.5639 11.519C52.5408 11.5137 52.5181 11.507 52.4951 11.5012C52.4803 11.4974 52.4654 11.4935 52.4503 11.4911C52.437 11.489 52.4197 11.494 52.4107 11.4871C52.3667 11.4535 52.3142 11.4734 52.2687 11.4609C52.2041 11.443 52.1347 11.4488 52.0753 11.4288C52.0195 11.4101 51.9671 11.4103 51.9124 11.4067C51.9035 11.4062 51.8927 11.409 51.8858 11.4051C51.8062 11.3591 51.7192 11.3856 51.6357 11.3788C51.6117 11.3768 51.5881 11.3829 51.5666 11.3621C51.5561 11.3519 51.5336 11.3513 51.5165 11.3512C51.1431 11.3506 50.7699 11.3508 50.3966 11.3508C50.3854 11.3508 50.3705 11.3471 50.3635 11.3527C50.3057 11.3989 50.2387 11.3722 50.1761 11.3783C50.1301 11.3828 50.085 11.3754 50.0393 11.4004C50.0111 11.4159 49.9688 11.4041 49.9332 11.4081C49.9076 11.411 49.8825 11.4194 49.8574 11.4258C49.8511 11.4274 49.8445 11.4348 49.8393 11.4337C49.7575 11.4161 49.6845 11.4673 49.6044 11.4631C49.5708 11.4613 49.5389 11.4782 49.5089 11.4822C49.4476 11.4904 49.393 11.5212 49.329 11.5219C49.2812 11.5225 49.2335 11.5489 49.186 11.5641C49.1755 11.5674 49.1652 11.5768 49.1556 11.5758C49.0793 11.5682 49.0148 11.604 48.9455 11.6253C48.9022 11.6387 48.8552 11.642 48.8116 11.6593C48.767 11.6772 48.7207 11.6909 48.6752 11.7065C48.6399 11.7185 48.6046 11.7305 48.5693 11.7428C48.5425 11.7522 48.5165 11.7641 48.4892 11.7715C48.4065 11.7937 48.3326 11.8377 48.2502 11.8624C48.1538 11.8913 48.0616 11.9342 47.975 11.9881C47.9483 12.0048 47.9124 12.0063 47.8833 12.0199C47.7811 12.0677 47.6768 12.1122 47.5797 12.1692C47.5255 12.2011 47.4702 12.2325 47.4182 12.2672C47.3774 12.2943 47.3348 12.3155 47.2931 12.3397C47.2287 12.3771 47.1684 12.4215 47.1061 12.4625C47.097 12.4685 47.0863 12.4724 47.0764 12.4771C47.0084 12.5094 46.9471 12.5522 46.8863 12.5962C46.8472 12.6245 46.8049 12.6484 46.7639 12.674C46.7583 12.6775 46.7512 12.6791 46.7461 12.6832C46.6928 12.7263 46.6444 12.7784 46.5852 12.811C46.5102 12.8523 46.4653 12.9308 46.3842 12.962C46.3764 12.9651 46.3708 12.9737 46.3641 12.9797C46.2776 13.0567 46.1894 13.1317 46.1053 13.2112C46.0203 13.2915 45.9395 13.3762 45.8569 13.4589C45.7679 13.548 45.6769 13.6352 45.5904 13.7266C45.5171 13.8041 45.4422 13.8817 45.3811 13.9684C45.3473 14.0163 45.3074 14.057 45.2722 14.1024C45.2318 14.1542 45.198 14.2111 45.1608 14.2654C45.1532 14.2765 45.1435 14.2862 45.1338 14.2954C45.0875 14.3394 45.0603 14.3965 45.0267 14.4492C45.026 14.4503 45.0252 14.4513 45.0244 14.4524C45.0017 14.4876 44.9781 14.5222 44.9553 14.5573C44.9386 14.5831 44.924 14.6105 44.9058 14.6352C44.851 14.7094 44.8188 14.7978 44.7584 14.8688C44.7459 14.8834 44.7402 14.9041 44.7327 14.9225C44.7064 14.9879 44.6429 15.033 44.6329 15.1071C44.5329 15.215 44.4875 15.354 44.4278 15.4833C44.3857 15.5746 44.3369 15.6635 44.3014 15.7568C44.2738 15.8297 44.2431 15.9027 44.2205 15.9763C44.192 16.0683 44.1407 16.151 44.1233 16.2477C44.1107 16.3174 44.0755 16.383 44.0504 16.4504C44.0481 16.4567 44.0437 16.4631 44.0438 16.4693C44.0454 16.5376 44.0154 16.5964 43.9898 16.6569C43.9857 16.6667 43.9858 16.6792 43.9869 16.6902C43.9939 16.7569 43.9605 16.8126 43.9389 16.8716C43.9344 16.8838 43.9312 16.8973 43.9308 16.9103C43.9294 16.9496 43.9426 16.991 43.9054 17.0236C43.8983 17.0298 43.9034 17.0493 43.9018 17.0626C43.8999 17.078 43.9021 17.0977 43.8935 17.1076C43.8717 17.133 43.8742 17.1613 43.8737 17.1904C43.873 17.2297 43.8854 17.2713 43.8498 17.3044C43.8436 17.31 43.8456 17.3257 43.8456 17.3368C43.8452 17.3853 43.8519 17.4327 43.8221 17.4791C43.8087 17.5 43.8193 17.5361 43.8184 17.5652C43.8174 17.5983 43.8228 17.6317 43.798 17.6616C43.7884 17.6733 43.7901 17.6958 43.7901 17.7134C43.7899 17.7719 43.7911 17.8303 43.7921 17.8888C43.7926 17.9175 43.7873 17.9394 43.7505 17.93V19.1725C43.7879 19.1617 43.7926 19.1845 43.7921 19.2129C43.7913 19.2691 43.7903 19.3254 43.7898 19.3816C43.7897 19.3973 43.7847 19.4176 43.7924 19.4279C43.8306 19.4783 43.8143 19.5356 43.8178 19.5903C43.8186 19.6037 43.8146 19.6222 43.8218 19.6296C43.8572 19.6655 43.8423 19.7096 43.8469 19.7507C43.8496 19.774 43.8599 19.7962 43.8648 19.8193C43.8692 19.8407 43.8725 19.8625 43.8737 19.8843C43.8761 19.9238 43.8656 19.9646 43.896 20C43.9043 20.0098 43.8989 20.0305 43.9021 20.0457C43.9056 20.0623 43.912 20.0785 43.9168 20.095C43.9217 20.1115 43.9293 20.1282 43.9299 20.145C43.9309 20.1698 43.9269 20.1945 43.9492 20.2132C43.9538 20.2172 43.9589 20.2259 43.9577 20.2307C43.9395 20.2976 43.9827 20.3546 43.9879 20.4182C43.9913 20.4604 44.0114 20.5013 44.0246 20.5426C44.0297 20.5589 44.0362 20.5749 44.0432 20.5905C44.0788 20.6705 44.0767 20.7619 44.1197 20.84C44.1331 20.8643 44.1373 20.8937 44.1464 20.9205C44.1681 20.9847 44.1894 21.049 44.2124 21.1126C44.231 21.1641 44.2521 21.2146 44.2717 21.2659C44.2801 21.2881 44.2875 21.3107 44.2951 21.3332C44.2966 21.3374 44.2954 21.3441 44.2981 21.346C44.3588 21.3901 44.3541 21.4674 44.3885 21.5251C44.4103 21.5614 44.417 21.6067 44.437 21.6445C44.4678 21.7027 44.4839 21.7697 44.5364 21.8159C44.5447 21.8233 44.544 21.8405 44.5488 21.8526C44.5624 21.887 44.5698 21.9273 44.5929 21.9538C44.6168 21.9813 44.6328 22.0109 44.6497 22.0418C44.6857 22.1075 44.7244 22.1717 44.7612 22.237C44.7957 22.2982 44.8209 22.3671 44.8653 22.4198C44.9131 22.4766 44.9517 22.5361 44.9857 22.6013C45.015 22.6575 45.0544 22.7085 45.0898 22.7616C45.0947 22.769 45.1009 22.7758 45.1076 22.7816C45.1722 22.8378 45.219 22.9068 45.2569 22.983C45.2645 22.9984 45.2813 23.0091 45.2925 23.023C45.3175 23.0538 45.3412 23.0857 45.3666 23.1162C45.373 23.1239 45.3842 23.1276 45.3928 23.1336C45.4016 23.1397 45.4161 23.1455 45.4172 23.1529C45.4221 23.191 45.4516 23.2103 45.4758 23.2324C45.5106 23.2643 45.5302 23.3065 45.558 23.3427C45.5919 23.3868 45.6364 23.4229 45.6761 23.4626C45.838 23.6249 45.9994 23.7879 46.1624 23.9491C46.1871 23.9736 46.2205 23.9891 46.2476 24.0114C46.2752 24.0342 46.2989 24.0617 46.3263 24.0847C46.3549 24.1086 46.386 24.1297 46.4159 24.1522C46.423 24.1575 46.4302 24.1628 46.4371 24.1685C46.5 24.2214 46.5582 24.2816 46.6267 24.3256C46.7246 24.3885 46.8047 24.4794 46.92 24.5153C46.9298 24.5184 46.9389 24.5276 46.9458 24.536C47.0069 24.609 47.1021 24.6362 47.1685 24.702C47.2556 24.6919 47.2846 24.7826 47.3538 24.8084C47.4417 24.8411 47.5238 24.89 47.6075 24.9339C47.6443 24.9531 47.6777 24.9788 47.7142 24.9987C47.7725 25.0303 47.8298 25.0667 47.8919 25.0879C47.9867 25.12 48.0706 25.1736 48.1618 25.2105C48.2065 25.2285 48.2525 25.2434 48.2956 25.2658C48.3033 25.2698 48.3128 25.2734 48.3212 25.2728C48.378 25.2681 48.4211 25.2985 48.4688 25.3227C48.523 25.3504 48.5849 25.3626 48.6409 25.3874C48.711 25.4184 48.7951 25.4075 48.8572 25.4619C48.8646 25.4684 48.8782 25.4701 48.889 25.4702C48.9479 25.4706 48.9986 25.4986 49.052 25.5176C49.0665 25.5227 49.0821 25.5242 49.0971 25.5279C49.12 25.5336 49.1428 25.54 49.1657 25.5455C49.1807 25.5491 49.1958 25.5537 49.211 25.5545C49.2481 25.5565 49.2867 25.5455 49.3179 25.5796C49.3255 25.5878 49.3481 25.5844 49.3635 25.5828C49.3842 25.5808 49.404 25.5772 49.4178 25.598C49.4202 25.6016 49.4239 25.6061 49.4276 25.6069C49.4813 25.618 49.5346 25.6313 49.5887 25.6384C49.63 25.6437 49.6705 25.637 49.7115 25.6608C49.7372 25.6758 49.7771 25.6665 49.8107 25.6679C49.8241 25.6684 49.8434 25.6629 49.8498 25.6697C49.8869 25.7094 49.9337 25.6926 49.9768 25.6956C50.0078 25.6978 50.0386 25.6927 50.0669 25.7146C50.0791 25.724 50.1009 25.7228 50.1185 25.723C50.1792 25.7239 50.2399 25.7235 50.3005 25.7233C50.3192 25.7233 50.3382 25.7222 50.3363 25.7497H51.5644C51.576 25.7258 51.5957 25.7224 51.6204 25.7233C51.672 25.7252 51.7238 25.7245 51.7755 25.7238C51.8065 25.7234 51.8352 25.7213 51.8655 25.7047C51.8903 25.691 51.9264 25.6971 51.9576 25.6955C51.9924 25.6937 52.0286 25.7046 52.0584 25.6727C52.0661 25.6643 52.088 25.6693 52.1033 25.668C52.1464 25.6644 52.1939 25.6818 52.2297 25.6418C52.2322 25.6391 52.2385 25.6379 52.2424 25.6386C52.3172 25.652 52.3873 25.6278 52.4579 25.6102C52.5125 25.5966 52.566 25.5786 52.6199 25.5622C52.6262 25.5603 52.6329 25.5538 52.6382 25.5549C52.7026 25.5692 52.7595 25.5353 52.8201 25.5261C52.863 25.5196 52.9042 25.5021 52.9462 25.4898C52.9691 25.4831 52.9923 25.4772 53.0152 25.4705C53.0594 25.4576 53.1029 25.4423 53.1475 25.4316C53.2182 25.4146 53.2772 25.3701 53.3497 25.3543C53.4213 25.3388 53.4877 25.3014 53.5581 25.2791C53.676 25.2418 53.7926 25.2004 53.8973 25.1348C53.9455 25.1046 54.0013 25.1072 54.049 25.079C54.1079 25.0442 54.1784 25.0261 54.2312 24.9847C54.3078 24.9245 54.3965 24.8918 54.4804 24.848C54.4921 24.8419 54.5019 24.8322 54.5119 24.8234C54.5204 24.816 54.5288 24.8001 54.5357 24.801C54.5942 24.808 54.6252 24.7575 54.671 24.7388C54.6772 24.7363 54.6848 24.7349 54.6891 24.7305C54.7494 24.667 54.8368 24.6469 54.9046 24.5955C54.9433 24.5662 54.9833 24.5386 55.0231 24.5107C55.0519 24.4905 55.0813 24.471 55.1105 24.4513C55.1651 24.4144 55.2196 24.3774 55.2743 24.3405C55.2762 24.3392 55.278 24.3379 55.2797 24.3365C55.3376 24.2883 55.3954 24.24 55.4535 24.1921C55.5047 24.15 55.5571 24.1091 55.6076 24.0661C55.6296 24.0472 55.6483 24.0243 55.6684 24.0031C55.6744 23.9966 55.6796 23.9845 55.6861 23.9837C55.7495 23.9767 55.7778 23.9227 55.8164 23.8848C55.9894 23.7144 56.1605 23.5421 56.3312 23.3694C56.3508 23.3496 56.3629 23.3224 56.3794 23.2993C56.3882 23.2869 56.3981 23.275 56.4088 23.2641C56.4484 23.2241 56.5009 23.1912 56.5254 23.1437C56.5639 23.0689 56.6362 23.0242 56.6735 22.9485C56.702 22.8904 56.7552 22.8448 56.7958 22.7923C56.8269 22.7521 56.856 22.7105 56.8845 22.6685C56.9167 22.6213 56.9476 22.5732 56.9782 22.5249C57.0065 22.4805 57.0373 22.4371 57.0606 22.3901C57.091 22.3287 57.1347 22.2768 57.1716 22.2202C57.1765 22.2127 57.1891 22.2059 57.1884 22.1999C57.1811 22.1341 57.2415 22.1013 57.2613 22.0484C57.2814 21.9949 57.3053 21.9405 57.3389 21.8949C57.3893 21.8265 57.4232 21.7502 57.4622 21.6762C57.4814 21.6396 57.5079 21.6065 57.5037 21.5597C57.5023 21.5442 57.5257 21.528 57.5323 21.51C57.5588 21.4378 57.6091 21.3771 57.6242 21.298C57.635 21.2413 57.6696 21.1894 57.6922 21.1347C57.7054 21.1025 57.7229 21.0701 57.7267 21.0363C57.738 20.9385 57.7944 20.8571 57.8202 20.7644C57.8376 20.7017 57.8679 20.6435 57.8736 20.5761C57.8768 20.5385 57.8992 20.5027 57.9119 20.4657C57.9183 20.4474 57.9226 20.4283 57.9278 20.4096C57.9337 20.3888 57.9402 20.3683 57.9452 20.3473C57.9493 20.3304 57.9531 20.313 57.9543 20.2957C57.9567 20.2607 57.9466 20.224 57.9781 20.1946C57.9855 20.1877 57.981 20.1688 57.9838 20.1559C57.9884 20.1348 57.9945 20.114 58.0002 20.0931C58.0037 20.0805 58.0083 20.0681 58.0112 20.0553C58.0126 20.0489 58.0088 20.0406 58.0115 20.0353C58.0435 19.9734 58.0449 19.9078 58.037 19.8406C58.0363 19.8348 58.0395 19.8258 58.044 19.8225C58.083 19.7939 58.0675 19.753 58.0672 19.7167C58.067 19.6875 58.0594 19.6594 58.087 19.6361C58.0949 19.6294 58.0956 19.6116 58.0959 19.5987C58.0976 19.5392 58.098 19.4825 58.1186 19.4224C58.138 19.366 58.1235 19.2978 58.1239 19.2349C58.124 19.2192 58.1213 19.2029 58.1252 19.1883C58.127 19.1814 58.1414 19.1779 58.1501 19.1729L58.1506 19.1724ZM49.8324 12.9491C49.8281 13.0396 49.7487 13.1213 49.6641 13.152C49.5981 13.1759 49.5336 13.176 49.438 13.1793C49.305 13.1883 49.1564 13.1382 49.0275 13.0485C48.9277 12.979 48.8324 12.8954 48.7806 12.7784C48.7628 12.7382 48.7424 12.6935 48.7444 12.6519C48.7472 12.5928 48.7814 12.5412 48.835 12.5105C48.8731 12.4886 48.9125 12.4661 48.9607 12.4737C48.9883 12.4781 49.0107 12.4686 49.0331 12.4482C49.1088 12.3789 49.1999 12.3858 49.2916 12.404C49.3087 12.4074 49.3249 12.4165 49.342 12.4182C49.5019 12.4336 49.6389 12.4954 49.7404 12.6223C49.7674 12.6561 49.78 12.7011 49.8011 12.74C49.8367 12.8062 49.836 12.8775 49.8325 12.9492L49.8324 12.9491ZM55.9289 14.891C55.839 14.8901 55.7487 14.8959 55.6593 14.8891C55.6007 14.8847 55.5422 14.8664 55.4856 14.8482C55.3652 14.8095 55.247 14.7652 55.1165 14.774C55.0501 14.7784 54.9942 14.8 54.9478 14.8459C54.8726 14.9203 54.8011 14.9985 54.7235 15.07C54.6796 15.1103 54.6239 15.1374 54.5777 15.1755C54.5085 15.2326 54.4208 15.2446 54.342 15.2782C54.3 15.296 54.2524 15.3016 54.2067 15.3093C54.1929 15.3116 54.1771 15.3023 54.1623 15.2983C54.1473 15.2943 54.1323 15.2866 54.1175 15.2868C54.0591 15.2876 54.0159 15.2563 53.9744 15.2219C53.8602 15.1271 53.7802 15.0069 53.7164 14.8743C53.6663 14.7702 53.6274 14.6623 53.5986 14.5504C53.5751 14.4586 53.5463 14.3682 53.5218 14.2766C53.5155 14.2531 53.5145 14.2274 53.5153 14.2029C53.5171 14.1398 53.508 14.0784 53.4863 14.0198C53.4773 13.9956 53.4538 13.9772 53.4425 13.9534C53.3906 13.8449 53.3076 13.7597 53.2366 13.6652C53.192 13.606 53.1512 13.5439 53.0951 13.4958C53.037 13.4461 52.9644 13.4248 52.8932 13.3978C52.814 13.3677 52.7276 13.392 52.6524 13.35C52.6348 13.3401 52.6084 13.3454 52.586 13.3448C52.5005 13.3425 52.4147 13.3455 52.3299 13.3374C52.2279 13.3276 52.1296 13.307 52.0559 13.2212C51.9989 13.1549 51.9324 13.0968 51.8696 13.0356C51.8366 13.0036 51.7974 12.9844 51.7514 12.9773C51.6643 12.9638 51.6177 13.0212 51.5788 13.0816C51.5389 13.1437 51.5122 13.2118 51.5166 13.2902C51.5213 13.3704 51.5177 13.451 51.5177 13.5385C51.5613 13.5403 51.6009 13.5434 51.6405 13.5431C51.7483 13.5423 51.8512 13.5656 51.9541 13.596C52.1223 13.6458 52.2769 13.7254 52.4298 13.8078C52.5237 13.8585 52.6087 13.9254 52.7005 13.9802C52.7816 14.0286 52.8527 14.0891 52.9275 14.1453C52.9764 14.182 53.0065 14.2288 53.0439 14.2719C53.0722 14.3046 53.0729 14.3325 53.0434 14.3618C53.0039 14.401 52.9601 14.4364 52.9165 14.4713C52.8712 14.5075 52.8243 14.5417 52.7773 14.5757C52.7197 14.6176 52.6578 14.6543 52.6039 14.7005C52.5341 14.7603 52.4701 14.8271 52.4043 14.8916C52.3968 14.899 52.3891 14.9116 52.3899 14.9211C52.3963 14.9982 52.3536 15.0522 52.3072 15.105C52.305 15.1074 52.3069 15.1133 52.3069 15.1209C52.3407 15.1311 52.3582 15.1062 52.3796 15.0877C52.4132 15.0587 52.4467 15.0292 52.4834 15.0046C52.5631 14.9513 52.637 14.9796 52.7064 15.0281C52.8076 15.0989 52.863 15.1996 52.8979 15.3165C52.9134 15.3687 52.9586 15.4045 53.0073 15.4305C53.0567 15.4569 53.1065 15.4826 53.1572 15.5062C53.2585 15.5535 53.3256 15.6274 53.3477 15.7395C53.3523 15.763 53.369 15.7849 53.3708 15.8083C53.3804 15.9346 53.3314 16.0309 53.2267 16.1055C53.116 16.1844 52.9892 16.2307 52.8721 16.2964C52.8058 16.3335 52.7573 16.389 52.7094 16.4456C52.7027 16.4534 52.6999 16.4659 52.6989 16.4766C52.691 16.5652 52.6451 16.6336 52.5917 16.7021C52.5393 16.7696 52.4891 16.8384 52.424 16.894C52.3323 16.9725 52.2388 17.0487 52.1456 17.1255C52.0817 17.1781 52.0182 17.2314 51.9527 17.282C51.8998 17.3229 51.8437 17.3596 51.7897 17.3993C51.743 17.4336 51.6969 17.469 51.6511 17.5045C51.5944 17.5484 51.5383 17.593 51.4821 17.6375C51.4401 17.6707 51.3964 17.7023 51.3569 17.7383C51.3128 17.7784 51.3139 17.7973 51.3352 17.8507C51.3859 17.9784 51.4368 18.1061 51.4818 18.2359C51.5106 18.3191 51.4745 18.3881 51.3961 18.4255C51.3661 18.4176 51.3363 18.4143 51.3107 18.4023C51.2107 18.355 51.1337 18.2795 51.0742 18.1881C51.0283 18.1176 50.9833 18.0526 50.8854 18.0661C50.7786 18.0282 50.6669 18.0408 50.5594 18.0491C50.4688 18.0561 50.3781 18.0663 50.2868 18.0693C50.2419 18.0708 50.1968 18.07 50.152 18.0734C50.1259 18.0754 50.1004 18.085 50.0743 18.0888C50.0412 18.0935 50.008 18.0964 49.9747 18.0987C49.937 18.1013 49.8991 18.1023 49.8579 18.1041C49.8558 18.1243 49.8525 18.1393 49.8529 18.1542C49.855 18.2261 49.8531 18.2986 49.862 18.3697C49.8717 18.4463 49.894 18.5212 49.9066 18.5975C49.914 18.642 49.9237 18.6839 49.9426 18.7256C49.9695 18.7849 49.9982 18.8386 50.0745 18.8559C50.1176 18.839 50.1698 18.8247 50.2153 18.7986C50.277 18.7633 50.3371 18.7232 50.3913 18.6773C50.4501 18.6277 50.5216 18.6107 50.5895 18.5849C50.6307 18.5692 50.6982 18.6225 50.7 18.6699C50.701 18.6956 50.6941 18.723 50.685 18.7475C50.665 18.8016 50.6409 18.8542 50.6195 18.9078C50.6156 18.9176 50.6166 18.9293 50.6149 18.9427C50.7612 18.9533 50.8404 19.049 50.9069 19.1621C50.9547 19.2434 50.9826 19.3321 51.0142 19.4202C51.0294 19.4626 51.0703 19.5037 51.1102 19.5276C51.1803 19.5695 51.2578 19.5934 51.3436 19.5961C51.4456 19.5992 51.5346 19.5655 51.626 19.5294C51.7204 19.4922 51.8116 19.4468 51.9111 19.4218C51.9941 19.4009 52.0738 19.3667 52.1568 19.346C52.2017 19.3348 52.2507 19.341 52.2975 19.3365C52.3348 19.333 52.3715 19.3245 52.4086 19.3197C52.4239 19.3176 52.4398 19.3176 52.455 19.3197C52.49 19.3245 52.5251 19.3379 52.5593 19.3356C52.6277 19.3311 52.685 19.3643 52.7472 19.3802C52.803 19.3944 52.86 19.4068 52.913 19.4283C52.9777 19.4545 53.0479 19.4406 53.1097 19.4589C53.1922 19.4832 53.2748 19.4684 53.3548 19.4836C53.4592 19.5034 53.5584 19.538 53.6505 19.5986C53.7489 19.6636 53.8274 19.7496 53.9177 19.8224C53.9519 19.85 53.9734 19.8927 54.0055 19.9234C54.0881 20.0023 54.1684 20.0851 54.2589 20.1541C54.3543 20.2267 54.4521 20.3021 54.5652 20.3437C54.6601 20.3787 54.7509 20.4293 54.8549 20.4393C54.8783 20.4416 54.8998 20.4589 54.9232 20.466C55.0089 20.4919 55.0803 20.5382 55.1377 20.6075C55.1601 20.6346 55.1728 20.6615 55.1745 20.6981C55.1778 20.7676 55.1591 20.8281 55.1287 20.8906C55.0818 20.9867 55.0153 21.0673 54.9488 21.1484C54.8524 21.2662 54.7538 21.3822 54.6567 21.4994C54.6469 21.5113 54.6409 21.5264 54.6339 21.5404C54.5868 21.6349 54.5262 21.7201 54.4653 21.8063C54.3916 21.9107 54.3014 21.9969 54.2107 22.083C54.1399 22.1503 54.0594 22.2077 53.9812 22.267C53.9047 22.325 53.8279 22.383 53.7475 22.4353C53.6465 22.501 53.5415 22.5606 53.4384 22.6233C53.4175 22.6361 53.395 22.6477 53.3777 22.6646C53.3004 22.74 53.2212 22.8139 53.1496 22.8946C53.0846 22.9679 53.0286 23.0492 52.9684 23.1269C52.9615 23.1357 52.9529 23.1433 52.9461 23.1522C52.8888 23.2264 52.832 23.301 52.7746 23.3751C52.7295 23.4333 52.6819 23.4898 52.6386 23.5493C52.5913 23.6143 52.5475 23.6819 52.5026 23.7486C52.4514 23.8246 52.3999 23.9003 52.3503 23.9772C52.3322 24.0053 52.3187 24.0364 52.3036 24.0663C52.2557 24.1614 52.198 24.25 52.1152 24.3176C52.0444 24.3753 51.9699 24.429 51.8938 24.4796C51.7578 24.5699 51.6158 24.6502 51.4673 24.7183C51.3873 24.755 51.3054 24.7876 51.2198 24.8241C51.2158 24.8082 51.21 24.7962 51.2102 24.7841C51.2119 24.683 51.2018 24.5792 51.2204 24.4811C51.2439 24.358 51.2285 24.2354 51.2414 24.1135C51.2467 24.0633 51.2614 24.0136 51.276 23.9649C51.3 23.8846 51.3259 23.805 51.3533 23.7258C51.3866 23.6294 51.4232 23.5342 51.4568 23.4379C51.4897 23.3438 51.5197 23.2487 51.5526 23.1545C51.5766 23.0862 51.6144 23.0205 51.6255 22.9503C51.6384 22.87 51.6736 22.7981 51.6911 22.72C51.7099 22.6361 51.7449 22.5559 51.769 22.473C51.7838 22.422 51.7903 22.3689 51.8023 22.3171C51.818 22.2484 51.8381 22.1806 51.851 22.1114C51.8591 22.0676 51.856 22.0219 51.861 21.9773C51.8644 21.9469 51.8752 21.9173 51.8785 21.8869C51.8811 21.8634 51.8785 21.8391 51.8753 21.8156C51.873 21.7983 51.8605 21.7813 51.8619 21.765C51.8708 21.6564 51.8124 21.571 51.763 21.4846C51.7312 21.429 51.6881 21.3776 51.6415 21.3334C51.5868 21.2814 51.5255 21.2348 51.4621 21.1935C51.3668 21.1315 51.2646 21.0799 51.1702 21.0168C51.0777 20.955 50.9811 20.9004 50.9003 20.8187C50.8047 20.722 50.7987 20.588 50.8355 20.4579C50.8627 20.3619 50.9097 20.2763 50.9577 20.191C50.9903 20.1329 51.0316 20.0796 51.07 20.0249C51.0954 19.9887 51.1226 19.9536 51.1537 19.9118C51.1246 19.8877 51.0959 19.864 51.0671 19.8404C51.0515 19.8276 51.0348 19.816 51.0203 19.8021C50.9411 19.7255 50.8673 19.6423 50.7821 19.573C50.6926 19.5001 50.6099 19.4147 50.4985 19.3732C50.4324 19.3485 50.3645 19.3288 50.297 19.3077C50.2404 19.29 50.1836 19.2729 50.1264 19.257C50.0837 19.2451 50.04 19.2369 49.9974 19.2246C49.9106 19.1995 49.8245 19.1723 49.7377 19.1471C49.6931 19.1341 49.6471 19.1255 49.6027 19.1116C49.5269 19.088 49.4519 19.0622 49.3769 19.0364C49.3119 19.0141 49.2454 18.9949 49.1831 18.9665C49.0358 18.8994 48.9166 18.8057 48.8766 18.6356C48.8606 18.567 48.8358 18.4991 48.8053 18.4356C48.7543 18.3298 48.6648 18.2555 48.574 18.1856C48.5286 18.1507 48.475 18.1254 48.423 18.1C48.328 18.0533 48.2397 17.9945 48.162 17.9252C48.054 17.8289 47.9775 17.7041 47.9284 17.5694C47.8908 17.4663 47.8565 17.3579 47.8645 17.2437C47.8216 17.0939 47.8465 16.9409 47.8437 16.7893C47.843 16.7516 47.8366 16.7132 47.8612 16.6786C47.8668 16.6708 47.8644 16.6568 47.8644 16.6456C47.865 16.4521 47.8697 16.2585 47.8641 16.0652C47.8607 15.9505 47.8178 15.8454 47.755 15.7476C47.6958 15.6553 47.6157 15.5834 47.5375 15.5099C47.4907 15.466 47.4341 15.4324 47.3821 15.394C47.3335 15.3581 47.2841 15.323 47.2369 15.2852C47.1754 15.236 47.1071 15.1904 47.0321 15.1803C46.9388 15.1677 46.8409 15.156 46.7471 15.1942C46.7127 15.2082 46.6753 15.2156 46.6386 15.2235C46.5318 15.2461 46.4419 15.3068 46.3466 15.3545C46.1668 15.4447 45.9915 15.5442 45.8114 15.6336C45.6836 15.6969 45.5458 15.7218 45.4024 15.7058C45.3647 15.7015 45.3485 15.6788 45.3653 15.6462C45.4021 15.5747 45.4429 15.5053 45.4822 15.4351C45.4963 15.4099 45.5102 15.3845 45.5256 15.36C45.5875 15.2617 45.6496 15.1636 45.7121 15.0659C45.7578 14.9944 45.8035 14.9229 45.8509 14.8525C45.8796 14.81 45.9097 14.7681 45.9425 14.7287C46.017 14.6392 46.0935 14.5514 46.1693 14.463C46.1973 14.4303 46.2317 14.4152 46.2763 14.4178C46.316 14.42 46.357 14.4224 46.3928 14.3954C46.402 14.3885 46.4189 14.3913 46.4323 14.3908C46.4885 14.3893 46.5453 14.3826 46.6007 14.3885C46.6878 14.3977 46.7695 14.3701 46.852 14.356C46.9581 14.3377 47.049 14.278 47.1335 14.21C47.1959 14.1597 47.2624 14.1144 47.3283 14.0687C47.342 14.0591 47.362 14.0516 47.3782 14.0532C47.5027 14.0652 47.6086 14.0113 47.7149 13.9597C47.8055 13.9156 47.8969 13.8725 47.9845 13.8227C48.0522 13.7842 48.1148 13.7367 48.179 13.6921C48.2175 13.6654 48.2551 13.6373 48.2925 13.6088C48.3572 13.5593 48.3963 13.4902 48.4224 13.4162C48.4463 13.3484 48.4998 13.3286 48.5569 13.3241C48.6226 13.3189 48.6886 13.3177 48.7557 13.3405C48.8238 13.3636 48.8991 13.3649 48.9709 13.3777C49.0143 13.3855 49.0582 13.3935 49.0999 13.4074C49.18 13.434 49.2651 13.4414 49.3441 13.4652C49.44 13.4941 49.5342 13.486 49.6293 13.4913C49.7157 13.4961 49.7944 13.4684 49.8757 13.4412C49.9973 13.4006 50.1026 13.3274 50.2217 13.2837C50.3088 13.2517 50.3933 13.2124 50.4885 13.204C50.5262 13.2007 50.5674 13.1821 50.5974 13.1584C50.6438 13.1219 50.6283 13.0644 50.613 13.0205C50.595 12.9686 50.5606 12.9221 50.531 12.8748C50.4849 12.8012 50.437 12.7287 50.3897 12.6559C50.3716 12.6279 50.354 12.5994 50.3348 12.572C50.2904 12.5088 50.3151 12.4508 50.3524 12.3982C50.4035 12.3259 50.4818 12.2889 50.5604 12.2548C50.5739 12.249 50.5914 12.2514 50.607 12.2515C50.8701 12.2523 51.1332 12.2533 51.3964 12.2543C51.4076 12.2543 51.4208 12.2507 51.4298 12.2553C51.4974 12.2901 51.5712 12.27 51.6412 12.2812C51.7462 12.2979 51.8534 12.3002 51.9565 12.3292C51.963 12.3309 51.9698 12.3313 51.9765 12.3322C52.0557 12.3433 52.1355 12.3514 52.2139 12.3666C52.2677 12.3769 52.3195 12.3973 52.3723 12.4127C52.3829 12.4158 52.3942 12.4187 52.4051 12.4183C52.4718 12.4162 52.5304 12.4445 52.5914 12.4652C52.6372 12.4808 52.6852 12.4896 52.7316 12.5034C52.8186 12.5293 52.9058 12.5547 52.9917 12.5839C53.1346 12.6326 53.2743 12.6897 53.4142 12.7468C53.6279 12.8339 53.8288 12.9451 54.0339 13.0482C54.163 13.1132 54.2838 13.1955 54.4054 13.2746C54.482 13.3244 54.5527 13.3832 54.6269 13.4366C54.6811 13.4757 54.7375 13.5118 54.7917 13.5509C54.837 13.5836 54.8824 13.6166 54.9248 13.653C55.0131 13.7289 55.1026 13.804 55.1858 13.8853C55.3532 14.0488 55.5207 14.2125 55.6801 14.3836C55.7742 14.4845 55.8701 14.586 55.9366 14.7099C55.9606 14.7548 55.9917 14.7959 56.0191 14.8381C55.9977 14.8778 55.9681 14.8914 55.9286 14.891H55.9289Z" fill="#FCBE11"/>
</svg>
