<svg viewBox="0 0 208 199" fill="none" xmlns="http://www.w3.org/2000/svg">
<path d="M104.001 193.476H35.5791C27.2038 193.476 19.1716 190.149 13.2493 184.227C7.32708 178.305 4 170.272 4 161.897V35.5794C4 27.204 7.32708 19.1717 13.2493 13.2494C19.1716 7.32711 27.2038 4 35.5791 4H161.896C170.271 4 178.303 7.32711 184.225 13.2494C190.148 19.1717 193.475 27.204 193.475 35.5794V104.001" stroke="#01426E" stroke-width="8" stroke-linecap="round" stroke-linejoin="round"/>
<path d="M4 140.846L56.6319 88.2132C66.4004 78.8131 78.4426 78.8131 88.211 88.2132L125.053 125.056" stroke="#01426E" stroke-width="8" stroke-linecap="round" stroke-linejoin="round"/>
<path d="M119.789 115.03L130.315 104.504C137.463 97.6301 145.821 95.7775 153.621 98.967M172.421 194.479V136.083M172.421 136.083L204 167.663M172.421 136.083L140.842 167.663" stroke="#01426E" stroke-width="8" stroke-linecap="round" stroke-linejoin="round"/>
<mask id="path-4-inside-1_127_106" fill="white">
<path d="M160.668 52.3952V48.9438C160.581 48.9446 160.591 48.8809 160.591 48.8255C160.591 48.6942 160.595 48.563 160.594 48.4319C160.593 48.328 160.595 48.2301 160.539 48.1268C160.497 48.0476 160.522 47.9322 160.519 47.8327C160.516 47.7532 160.533 47.673 160.459 47.6076C160.434 47.5855 160.435 47.527 160.435 47.4853C160.436 47.3565 160.469 47.2245 160.372 47.1101C160.356 47.0906 160.363 47.0501 160.361 47.0192C160.354 46.8859 160.4 46.7427 160.291 46.6276C160.339 46.4565 160.145 46.3288 160.205 46.1529C160.213 46.1321 160.184 46.0982 160.17 46.0712C160.156 46.044 160.126 46.0175 160.127 45.9919C160.135 45.8482 160.091 45.7165 160.062 45.579C160.026 45.4044 159.971 45.2428 159.907 45.0791C159.861 44.9629 159.871 44.816 159.803 44.7197C159.704 44.5776 159.759 44.4088 159.67 44.264C159.583 44.1235 159.561 43.9447 159.501 43.7859C159.471 43.7066 159.42 43.6353 159.382 43.559C159.366 43.5267 159.344 43.4886 159.349 43.4567C159.364 43.35 159.313 43.2667 159.275 43.1745C159.16 42.8977 159.014 42.6329 158.907 42.3569C158.809 42.1037 158.687 41.8659 158.57 41.6243C158.498 41.4767 158.403 41.3409 158.325 41.1958C158.221 41.0012 158.126 40.8019 158.024 40.6062C157.996 40.5525 157.962 40.5001 157.922 40.4548C157.853 40.3769 157.754 40.319 157.78 40.1893C157.783 40.1702 157.762 40.1446 157.748 40.1242C157.651 39.9759 157.572 39.8113 157.452 39.685C157.309 39.5338 157.223 39.3532 157.113 39.1839C156.953 38.9377 156.742 38.7254 156.584 38.4783C156.583 38.4764 156.581 38.4752 156.58 38.4732C156.488 38.3321 156.353 38.2281 156.275 38.0895C156.174 37.9098 155.999 37.8001 155.895 37.6359C155.648 37.2453 155.279 36.9726 154.97 36.6426C154.658 36.3097 154.327 35.9956 154.004 35.6735C153.987 35.6557 153.97 35.6273 153.95 35.6238C153.793 35.5975 153.728 35.4557 153.619 35.3692C153.577 35.3353 153.529 35.3087 153.482 35.2801C153.467 35.2704 153.439 35.2687 153.434 35.2565C153.366 35.086 153.183 35.0348 153.072 34.9056C152.987 34.8059 152.865 34.7261 152.745 34.6717C152.654 34.6308 152.597 34.5641 152.525 34.5069C152.386 34.3959 152.238 34.2969 152.099 34.186C151.907 34.0334 151.669 33.9588 151.483 33.7882C151.324 33.6422 151.124 33.5378 150.921 33.4457C150.733 33.3604 150.559 33.2425 150.38 33.1378C150.255 33.0651 150.134 32.9872 150.008 32.9177C149.956 32.8891 149.895 32.877 149.838 32.856C149.804 32.8433 149.763 32.8365 149.74 32.8124C149.575 32.6431 149.349 32.5761 149.145 32.4857C149.032 32.4357 148.912 32.3826 148.793 32.3436C148.669 32.3034 148.567 32.2422 148.458 32.1753C148.306 32.0827 148.116 32.0528 147.944 31.9913C147.818 31.9462 147.696 31.8902 147.57 31.8447C147.41 31.787 147.247 31.7368 147.087 31.68C146.978 31.6414 146.871 31.597 146.763 31.5556C146.74 31.5466 146.717 31.5317 146.694 31.5321C146.51 31.5349 146.355 31.4489 146.19 31.3875C146.065 31.3413 145.93 31.3234 145.801 31.291C145.759 31.2806 145.72 31.2627 145.68 31.2508C145.633 31.2367 145.586 31.2178 145.538 31.2145C145.435 31.2071 145.326 31.2434 145.24 31.1474C145.225 31.1304 145.18 31.1425 145.15 31.1357C145.086 31.1209 145.022 31.1022 144.959 31.086C144.917 31.0757 144.876 31.0648 144.834 31.0581C144.797 31.0523 144.749 31.066 144.724 31.0471C144.602 30.9537 144.456 31.009 144.33 30.9741C144.15 30.9246 143.958 30.9406 143.792 30.8851C143.637 30.833 143.492 30.8337 143.34 30.8237C143.315 30.8221 143.285 30.83 143.266 30.8191C143.045 30.6914 142.803 30.7651 142.571 30.7461C142.505 30.7407 142.439 30.7575 142.379 30.6996C142.35 30.6714 142.288 30.6696 142.24 30.6695C141.203 30.6679 140.166 30.6682 139.129 30.6684C139.098 30.6684 139.057 30.6581 139.037 30.6737C138.877 30.8019 138.691 30.7279 138.517 30.7447C138.389 30.7572 138.264 30.7367 138.137 30.8061C138.059 30.8491 137.941 30.8165 137.842 30.8274C137.771 30.8354 137.701 30.8588 137.632 30.8767C137.614 30.8812 137.596 30.9016 137.581 30.8986C137.354 30.8497 137.151 30.992 136.929 30.9802C136.836 30.9753 136.747 31.0223 136.663 31.0334C136.493 31.056 136.342 31.1416 136.164 31.1437C136.031 31.1453 135.899 31.2185 135.767 31.2608C135.738 31.2701 135.709 31.2961 135.682 31.2934C135.47 31.2722 135.291 31.3717 135.099 31.431C134.978 31.468 134.848 31.4771 134.727 31.5254C134.603 31.575 134.474 31.6129 134.348 31.6563C134.25 31.6898 134.152 31.7231 134.054 31.7574C133.979 31.7833 133.907 31.8165 133.831 31.8368C133.601 31.8986 133.396 32.0209 133.167 32.0895C132.899 32.1697 132.643 32.289 132.403 32.4387C132.328 32.485 132.229 32.4891 132.148 32.527C131.864 32.6596 131.574 32.7833 131.305 32.9418C131.154 33.0302 131.001 33.1176 130.856 33.2139C130.743 33.2892 130.624 33.3482 130.509 33.4154C130.33 33.5192 130.162 33.6424 129.989 33.7565C129.964 33.7731 129.934 33.784 129.907 33.797C129.718 33.8867 129.548 34.0056 129.379 34.1278C129.27 34.2064 129.152 34.2727 129.039 34.3439C129.023 34.3538 129.003 34.358 128.989 34.3694C128.841 34.4892 128.707 34.634 128.542 34.7245C128.334 34.8393 128.209 35.0572 127.984 35.1441C127.962 35.1525 127.947 35.1765 127.928 35.1932C127.688 35.4071 127.443 35.6154 127.209 35.8361C126.973 36.0591 126.749 36.2944 126.519 36.5243C126.272 36.7717 126.019 37.014 125.779 37.2679C125.575 37.4831 125.367 37.6987 125.197 37.9396C125.104 38.0726 124.993 38.1856 124.895 38.3116C124.783 38.4557 124.689 38.6138 124.585 38.7645C124.565 38.7952 124.537 38.8222 124.51 38.8478C124.382 38.97 124.306 39.1288 124.213 39.2749C124.211 39.2781 124.209 39.2809 124.207 39.2839C124.144 39.3816 124.078 39.4778 124.015 39.5753C123.968 39.6471 123.928 39.7231 123.877 39.7917C123.725 39.9979 123.636 40.2435 123.468 40.4406C123.433 40.4811 123.417 40.5387 123.396 40.5899C123.323 40.7713 123.147 40.8966 123.119 41.1026C122.841 41.4023 122.715 41.7885 122.549 42.1475C122.432 42.4011 122.297 42.6481 122.198 42.9073C122.122 43.1098 122.036 43.3126 121.973 43.5171C121.894 43.7727 121.752 44.0024 121.704 44.271C121.669 44.4646 121.571 44.6469 121.501 44.8341C121.495 44.8515 121.482 44.8692 121.483 44.8864C121.487 45.0761 121.404 45.2396 121.333 45.4075C121.321 45.4347 121.322 45.4697 121.325 45.5C121.344 45.6855 121.251 45.8401 121.191 46.004C121.179 46.038 121.17 46.0754 121.169 46.1115C121.165 46.2207 121.202 46.3356 121.098 46.4261C121.079 46.4435 121.093 46.4977 121.088 46.5346C121.083 46.5774 121.089 46.632 121.065 46.6597C121.005 46.7301 121.012 46.8088 121.01 46.8896C121.008 46.9987 121.043 47.1143 120.944 47.2061C120.927 47.2219 120.932 47.2654 120.932 47.2961C120.931 47.4309 120.95 47.5626 120.867 47.6914C120.83 47.7495 120.859 47.8497 120.857 47.9308C120.854 48.0227 120.869 48.1154 120.8 48.1985C120.773 48.2308 120.778 48.2935 120.778 48.3423C120.777 48.5047 120.781 48.667 120.784 48.8295C120.785 48.9092 120.77 48.9703 120.668 48.9439V52.3954C120.772 52.3654 120.785 52.4289 120.784 52.5077C120.781 52.6639 120.779 52.82 120.777 52.9762C120.777 53.0199 120.763 53.0764 120.784 53.1048C120.891 53.245 120.845 53.404 120.855 53.5561C120.857 53.5931 120.846 53.6447 120.866 53.6651C120.964 53.7649 120.923 53.8874 120.936 54.0016C120.943 54.0662 120.972 54.128 120.985 54.1922C120.998 54.2515 121.007 54.3122 121.01 54.3726C121.017 54.4824 120.988 54.5958 121.072 54.6942C121.095 54.7212 121.08 54.7788 121.089 54.8209C121.099 54.8672 121.117 54.9121 121.13 54.9579C121.143 55.0039 121.165 55.0502 121.166 55.0969C121.169 55.1659 121.158 55.2343 121.22 55.2864C121.233 55.2973 121.247 55.3215 121.243 55.335C121.193 55.5208 121.313 55.6791 121.327 55.8556C121.337 55.9728 121.393 56.0865 121.429 56.2013C121.444 56.2466 121.462 56.291 121.481 56.3345C121.58 56.5566 121.574 56.8103 121.694 57.0274C121.731 57.095 121.742 57.1765 121.768 57.2511C121.828 57.4292 121.887 57.6078 121.951 57.7847C122.003 57.9277 122.061 58.0681 122.116 58.2104C122.139 58.2722 122.16 58.335 122.181 58.3975C122.185 58.4092 122.182 58.4276 122.189 58.4331C122.358 58.5554 122.345 58.7701 122.44 58.9303C122.501 59.0314 122.519 59.1571 122.575 59.2622C122.66 59.4239 122.705 59.6099 122.851 59.7384C122.874 59.7589 122.872 59.8066 122.885 59.8402C122.923 59.9358 122.944 60.0477 123.008 60.1213C123.074 60.1978 123.119 60.2801 123.166 60.3659C123.266 60.5483 123.373 60.7266 123.475 60.9079C123.571 61.0781 123.641 61.2693 123.765 61.4159C123.898 61.5736 124.005 61.7389 124.099 61.92C124.181 62.0761 124.29 62.2177 124.388 62.3651C124.402 62.3857 124.419 62.4046 124.438 62.4208C124.617 62.5769 124.747 62.7685 124.852 62.9802C124.874 63.023 124.92 63.0526 124.951 63.0912C125.021 63.1769 125.087 63.2656 125.157 63.3502C125.175 63.3716 125.206 63.3818 125.23 63.3986C125.254 63.4155 125.295 63.4316 125.298 63.4522C125.311 63.558 125.393 63.6117 125.46 63.6729C125.557 63.7615 125.612 63.8787 125.689 63.9793C125.783 64.1019 125.907 64.2021 126.017 64.3125C126.467 64.7633 126.915 65.216 127.368 65.6639C127.436 65.7318 127.529 65.7748 127.604 65.837C127.681 65.9003 127.747 65.9766 127.823 66.0405C127.903 66.107 127.989 66.1656 128.072 66.2279C128.092 66.2426 128.112 66.2574 128.131 66.2733C128.305 66.4202 128.467 66.5874 128.658 66.7097C128.929 66.8845 129.152 67.1368 129.472 67.2367C129.499 67.2453 129.525 67.2709 129.544 67.294C129.714 67.4969 129.978 67.5725 130.163 67.7552C130.404 67.7273 130.485 67.9792 130.677 68.0508C130.921 68.1417 131.15 68.2774 131.382 68.3993C131.484 68.4528 131.577 68.5242 131.678 68.5793C131.84 68.6671 131.999 68.7683 132.172 68.8271C132.435 68.9164 132.668 69.0654 132.922 69.1677C133.046 69.2177 133.173 69.2593 133.293 69.3214C133.315 69.3325 133.341 69.3426 133.364 69.3407C133.522 69.3279 133.642 69.4121 133.774 69.4795C133.925 69.5564 134.097 69.5904 134.252 69.6592C134.447 69.7453 134.681 69.715 134.853 69.8661C134.874 69.8841 134.912 69.8889 134.941 69.889C135.105 69.8903 135.246 69.9682 135.395 70.0208C135.435 70.035 135.478 70.0392 135.52 70.0494C135.583 70.0652 135.646 70.0829 135.71 70.0984C135.752 70.1084 135.794 70.121 135.836 70.1233C135.939 70.1289 136.046 70.0984 136.133 70.1929C136.154 70.2158 136.217 70.2063 136.26 70.2019C136.317 70.1963 136.372 70.1865 136.411 70.2442C136.417 70.2542 136.427 70.2666 136.438 70.2687C136.587 70.2998 136.735 70.3367 136.885 70.3563C137 70.3712 137.112 70.3525 137.226 70.4186C137.298 70.4604 137.409 70.4344 137.502 70.4383C137.539 70.4398 137.593 70.4244 137.61 70.4433C137.713 70.5535 137.843 70.5069 137.963 70.5153C138.049 70.5213 138.135 70.5072 138.214 70.5679C138.248 70.5941 138.308 70.5907 138.357 70.5914C138.526 70.5939 138.694 70.5927 138.863 70.5923C138.915 70.5923 138.967 70.5892 138.962 70.6657H142.373C142.405 70.5992 142.46 70.5897 142.529 70.5923C142.672 70.5976 142.816 70.5955 142.96 70.5937C143.046 70.5925 143.125 70.5867 143.21 70.5406C143.279 70.5025 143.379 70.5193 143.465 70.5149C143.562 70.51 143.663 70.5402 143.746 70.4516C143.767 70.4284 143.828 70.4421 143.87 70.4386C143.99 70.4286 144.122 70.477 144.221 70.366C144.228 70.3584 144.246 70.3549 144.257 70.357C144.464 70.394 144.659 70.327 144.855 70.278C145.007 70.2402 145.155 70.1901 145.305 70.1447C145.323 70.1394 145.341 70.1214 145.356 70.1245C145.535 70.1642 145.693 70.0701 145.861 70.0443C145.98 70.0263 146.095 69.9778 146.212 69.9436C146.275 69.925 146.34 69.9087 146.403 69.8899C146.526 69.8541 146.647 69.8117 146.771 69.782C146.967 69.7348 147.131 69.6111 147.332 69.5672C147.531 69.5241 147.716 69.4202 147.911 69.3582C148.239 69.2547 148.563 69.1396 148.854 68.9575C148.987 68.8736 149.143 68.8808 149.275 68.8025C149.439 68.7059 149.635 68.6557 149.781 68.5406C149.994 68.3733 150.24 68.2824 150.473 68.1609C150.506 68.144 150.533 68.117 150.561 68.0926C150.584 68.0721 150.608 68.0278 150.627 68.0301C150.789 68.0496 150.875 67.9094 151.003 67.8575C151.02 67.8504 151.041 67.8468 151.053 67.8343C151.221 67.6581 151.463 67.6022 151.652 67.4595C151.759 67.3781 151.87 67.3014 151.981 67.2239C152.061 67.1677 152.142 67.1137 152.223 67.0589C152.375 66.9563 152.527 66.8536 152.678 66.751C152.684 66.7475 152.689 66.7439 152.694 66.7399C152.854 66.6062 153.015 66.4718 153.176 66.339C153.319 66.2219 153.464 66.1084 153.604 65.9889C153.666 65.9364 153.718 65.8727 153.773 65.8138C153.79 65.7957 153.804 65.7622 153.822 65.7601C153.999 65.7406 154.077 65.5906 154.184 65.4851C154.665 65.0119 155.14 64.5334 155.614 64.0537C155.669 63.9986 155.702 63.9231 155.748 63.8589C155.773 63.8243 155.8 63.7913 155.83 63.7612C155.94 63.6501 156.086 63.5587 156.154 63.4265C156.261 63.219 156.461 63.0947 156.565 62.8843C156.644 62.7231 156.792 62.5962 156.905 62.4504C156.991 62.3388 157.072 62.2232 157.151 62.1067C157.241 61.9754 157.327 61.8419 157.412 61.7078C157.49 61.5843 157.576 61.4638 157.64 61.3332C157.725 61.1627 157.846 61.0184 157.949 60.8612C157.962 60.8405 157.997 60.8217 157.996 60.8051C157.975 60.622 158.143 60.531 158.198 60.3841C158.254 60.2355 158.32 60.0844 158.414 59.9577C158.554 59.7677 158.648 59.5557 158.756 59.3501C158.809 59.2487 158.883 59.1567 158.871 59.0267C158.867 58.9835 158.933 58.9384 158.951 58.8886C159.024 58.6879 159.164 58.5194 159.206 58.2995C159.236 58.1421 159.332 57.9979 159.395 57.8461C159.432 57.7566 159.48 57.6665 159.491 57.5728C159.522 57.301 159.679 57.0749 159.75 56.8174C159.799 56.6433 159.883 56.4817 159.899 56.2945C159.908 56.1899 159.97 56.0904 160.005 55.9877C160.023 55.9369 160.035 55.8839 160.049 55.8319C160.066 55.7742 160.084 55.717 160.098 55.6587C160.109 55.6117 160.12 55.5636 160.123 55.5156C160.13 55.4184 160.101 55.3162 160.189 55.2346C160.21 55.2155 160.197 55.163 160.205 55.1273C160.218 55.0685 160.235 55.0107 160.251 54.9527C160.26 54.9176 160.273 54.8832 160.281 54.8476C160.285 54.8298 160.274 54.8069 160.282 54.7921C160.371 54.6202 160.375 54.4378 160.353 54.2513C160.351 54.2352 160.36 54.2101 160.372 54.201C160.481 54.1215 160.438 54.0079 160.437 53.9071C160.436 53.826 160.415 53.7479 160.492 53.6833C160.513 53.6647 160.515 53.6151 160.516 53.5794C160.521 53.4142 160.522 53.2564 160.579 53.0895C160.633 52.9328 160.593 52.7435 160.594 52.5688C160.594 52.5252 160.587 52.4798 160.598 52.4393C160.603 52.4201 160.643 52.4103 160.667 52.3964L160.668 52.3952ZM137.562 35.1081C137.55 35.3595 137.33 35.5864 137.095 35.6717C136.911 35.7382 136.732 35.7384 136.467 35.7477C136.097 35.7726 135.684 35.6334 135.326 35.3841C135.049 35.1911 134.784 34.9589 134.64 34.6338C134.591 34.5224 134.534 34.3982 134.54 34.2825C134.548 34.1185 134.643 33.9749 134.792 33.8896C134.897 33.8289 135.007 33.7663 135.141 33.7875C135.217 33.7996 135.28 33.7735 135.342 33.7166C135.552 33.5243 135.805 33.5433 136.06 33.594C136.107 33.6035 136.153 33.6287 136.2 33.6335C136.644 33.6763 137.025 33.8479 137.307 34.2004C137.381 34.2943 137.417 34.4192 137.475 34.5271C137.574 34.711 137.572 34.9093 137.563 35.1083L137.562 35.1081ZM154.497 40.5023C154.247 40.4999 153.996 40.516 153.748 40.4971C153.585 40.4848 153.423 40.4339 153.266 40.3834C152.931 40.276 152.603 40.1528 152.24 40.1772C152.056 40.1897 151.9 40.2495 151.771 40.3771C151.563 40.5836 151.364 40.801 151.148 40.9994C151.027 41.1114 150.872 41.1868 150.744 41.2926C150.551 41.4511 150.308 41.4846 150.089 41.5778C149.972 41.6274 149.84 41.6429 149.713 41.6643C149.675 41.6706 149.631 41.6448 149.59 41.6338C149.548 41.6227 149.506 41.6013 149.465 41.6018C149.303 41.6039 149.183 41.5171 149.068 41.4214C148.751 41.1582 148.528 40.8241 148.351 40.4558C148.212 40.1667 148.104 39.8671 148.024 39.5562C147.958 39.3013 147.878 39.0502 147.811 38.7957C147.793 38.7305 147.79 38.659 147.792 38.591C147.798 38.4157 147.772 38.2449 147.712 38.0823C147.687 38.0151 147.622 37.9638 147.59 37.8979C147.446 37.5966 147.215 37.3597 147.018 37.0974C146.894 36.9328 146.781 36.7603 146.625 36.6268C146.464 36.4887 146.262 36.4294 146.064 36.3544C145.844 36.2709 145.604 36.3385 145.395 36.2218C145.347 36.1942 145.273 36.2088 145.211 36.2072C144.974 36.2009 144.735 36.2093 144.5 36.1867C144.216 36.1595 143.943 36.1023 143.739 35.864C143.58 35.6798 143.396 35.5183 143.221 35.3485C143.13 35.2595 143.021 35.2062 142.893 35.1864C142.651 35.149 142.521 35.3085 142.413 35.4762C142.302 35.6485 142.228 35.8379 142.241 36.0556C142.253 36.2785 142.243 36.5024 142.243 36.7454C142.365 36.7503 142.475 36.7589 142.585 36.758C142.884 36.7559 143.17 36.8205 143.456 36.9051C143.923 37.0433 144.353 37.2644 144.777 37.4934C145.038 37.6341 145.274 37.8201 145.529 37.9723C145.754 38.1067 145.952 38.2748 146.16 38.4308C146.296 38.5329 146.379 38.6627 146.483 38.7826C146.562 38.8735 146.564 38.9508 146.482 39.0323C146.372 39.1412 146.25 39.2395 146.129 39.3364C146.003 39.4371 145.873 39.532 145.743 39.6266C145.582 39.7427 145.411 39.8449 145.261 39.9731C145.067 40.1393 144.889 40.3248 144.706 40.5041C144.686 40.5244 144.664 40.5595 144.666 40.5859C144.684 40.8001 144.566 40.95 144.437 41.0967C144.431 41.1033 144.436 41.1198 144.436 41.1409C144.53 41.1693 144.578 41.1 144.638 41.0486C144.731 40.9682 144.824 40.8861 144.926 40.8178C145.147 40.6697 145.353 40.7483 145.545 40.8831C145.827 41.0798 145.98 41.3595 146.077 41.6841C146.12 41.8292 146.246 41.9287 146.381 42.001C146.518 42.0744 146.657 42.1458 146.798 42.2112C147.079 42.3425 147.265 42.5478 147.327 42.8592C147.34 42.9247 147.386 42.9854 147.391 43.0505C147.418 43.4012 147.282 43.6687 146.991 43.8759C146.683 44.095 146.331 44.2237 146.006 44.4062C145.822 44.5093 145.687 44.6636 145.554 44.8206C145.535 44.8422 145.527 44.8771 145.525 44.9068C145.503 45.1529 145.375 45.3428 145.227 45.5332C145.081 45.7206 144.942 45.9118 144.761 46.0663C144.506 46.2842 144.247 46.496 143.988 46.7092C143.81 46.8555 143.634 47.0034 143.452 47.144C143.305 47.2575 143.149 47.3596 142.999 47.4698C142.869 47.5651 142.741 47.6634 142.614 47.762C142.457 47.8841 142.301 48.0078 142.145 48.1315C142.028 48.2238 141.907 48.3115 141.797 48.4116C141.674 48.5228 141.678 48.5753 141.737 48.7237C141.878 49.0783 142.019 49.4331 142.144 49.7937C142.224 50.025 142.124 50.2164 141.906 50.3205C141.822 50.2985 141.74 50.2894 141.669 50.2559C141.391 50.1245 141.177 49.9148 141.011 49.6609C140.884 49.4651 140.759 49.2847 140.487 49.3221C140.19 49.2168 139.88 49.2517 139.582 49.2749C139.33 49.2943 139.078 49.3228 138.825 49.331C138.7 49.3351 138.574 49.3329 138.45 49.3424C138.377 49.348 138.307 49.3747 138.234 49.3851C138.142 49.3982 138.05 49.4063 137.957 49.4126C137.853 49.4198 137.747 49.4226 137.633 49.4277C137.627 49.4837 137.618 49.5254 137.619 49.5667C137.625 49.7665 137.62 49.968 137.645 50.1655C137.671 50.3782 137.733 50.5861 137.768 50.7983C137.789 50.9218 137.816 51.0383 137.868 51.1541C137.943 51.3187 138.023 51.468 138.235 51.5161C138.354 51.4689 138.499 51.4293 138.626 51.3568C138.797 51.2587 138.964 51.1473 139.115 51.0199C139.278 50.8822 139.477 50.835 139.665 50.7632C139.78 50.7195 139.967 50.8678 139.972 50.9992C139.975 51.0708 139.956 51.1468 139.931 51.2148C139.875 51.365 139.808 51.5112 139.749 51.6602C139.738 51.6874 139.74 51.7198 139.736 51.7572C140.142 51.7865 140.362 52.0524 140.547 52.3664C140.68 52.5923 140.757 52.8388 140.845 53.0834C140.887 53.2011 141.001 53.3155 141.112 53.3817C141.306 53.4982 141.522 53.5647 141.76 53.5721C142.043 53.5807 142.29 53.4872 142.544 53.387C142.807 53.2834 143.06 53.1574 143.336 53.088C143.567 53.0299 143.788 52.935 144.019 52.8774C144.144 52.8463 144.28 52.8634 144.41 52.8511C144.513 52.8413 144.615 52.8177 144.718 52.8042C144.761 52.7986 144.805 52.7986 144.847 52.8044C144.944 52.8177 145.042 52.8548 145.137 52.8484C145.327 52.836 145.486 52.9283 145.659 52.9723C145.814 53.0118 145.972 53.0464 146.119 53.106C146.299 53.1789 146.494 53.1403 146.666 53.191C146.895 53.2585 147.124 53.2175 147.347 53.2596C147.637 53.3147 147.912 53.4106 148.168 53.5791C148.441 53.7595 148.659 53.9985 148.91 54.2008C149.005 54.2775 149.065 54.3959 149.154 54.4812C149.383 54.7005 149.607 54.9304 149.858 55.122C150.123 55.3238 150.395 55.5331 150.709 55.6487C150.972 55.746 151.225 55.8865 151.514 55.9144C151.578 55.9207 151.638 55.9688 151.703 55.9885C151.941 56.0606 152.14 56.189 152.299 56.3817C152.361 56.4569 152.397 56.5317 152.401 56.6331C152.41 56.8263 152.358 56.9944 152.274 57.1679C152.144 57.435 151.959 57.6587 151.774 57.8842C151.507 58.2113 151.233 58.5334 150.963 58.8591C150.936 58.8921 150.919 58.934 150.9 58.973C150.769 59.2355 150.601 59.4722 150.431 59.7117C150.227 60.0016 149.976 60.2411 149.724 60.4803C149.527 60.6671 149.304 60.8266 149.087 60.9914C148.874 61.1525 148.661 61.3136 148.437 61.4588C148.157 61.6413 147.865 61.807 147.579 61.981C147.521 62.0165 147.458 62.0489 147.41 62.0958C147.196 62.3053 146.976 62.5106 146.777 62.7347C146.596 62.9384 146.44 63.1642 146.273 63.3799C146.254 63.4044 146.23 63.4255 146.211 63.4502C146.052 63.6564 145.894 63.8635 145.735 64.0693C145.61 64.2311 145.477 64.3879 145.357 64.5532C145.226 64.734 145.104 64.9215 144.979 65.107C144.837 65.3179 144.694 65.5283 144.556 65.742C144.506 65.8199 144.469 65.9064 144.427 65.9894C144.294 66.2535 144.133 66.4997 143.903 66.6874C143.707 66.8478 143.5 66.997 143.288 67.1373C142.911 67.3883 142.516 67.6113 142.104 67.8004C141.881 67.9024 141.654 67.9931 141.416 68.0943C141.405 68.0503 141.389 68.0168 141.389 67.9835C141.394 67.7024 141.366 67.4142 141.418 67.1417C141.483 66.7997 141.44 66.4592 141.476 66.1205C141.491 65.981 141.532 65.8431 141.572 65.7078C141.639 65.4848 141.711 65.2635 141.787 65.0437C141.88 64.7759 141.981 64.5113 142.074 64.2439C142.166 63.9824 142.249 63.7182 142.341 63.4567C142.407 63.2669 142.512 63.0844 142.543 62.8894C142.579 62.6662 142.677 62.4667 142.725 62.2497C142.777 62.0165 142.875 61.7938 142.942 61.5634C142.983 61.422 143.001 61.2744 143.034 61.1305C143.078 60.9396 143.134 60.7514 143.169 60.5592C143.192 60.4374 143.183 60.3104 143.197 60.1867C143.207 60.1021 143.237 60.02 143.246 59.9354C143.253 59.8703 143.246 59.8028 143.237 59.7373C143.23 59.6894 143.196 59.6422 143.2 59.5968C143.224 59.2952 143.062 59.0579 142.925 58.8181C142.837 58.6635 142.717 58.5208 142.588 58.398C142.435 58.2534 142.265 58.1241 142.089 58.0093C141.824 57.837 141.541 57.6938 141.278 57.5185C141.021 57.3468 140.753 57.1953 140.529 56.9683C140.263 56.6996 140.246 56.3275 140.349 55.966C140.424 55.6993 140.555 55.4615 140.688 55.2246C140.778 55.0632 140.893 54.9153 141 54.7633C141.071 54.6626 141.146 54.5652 141.233 54.4491C141.152 54.3822 141.072 54.3164 140.992 54.2506C140.949 54.2152 140.902 54.1831 140.862 54.1443C140.642 53.9316 140.437 53.7003 140.2 53.5079C139.952 53.3055 139.722 53.0683 139.412 52.953C139.229 52.8844 139.04 52.8295 138.853 52.7711C138.696 52.7219 138.538 52.6744 138.379 52.6302C138.26 52.5972 138.139 52.5744 138.021 52.5402C137.779 52.4705 137.54 52.3949 137.299 52.3249C137.175 52.2887 137.047 52.2648 136.924 52.2262C136.714 52.1606 136.505 52.089 136.297 52.0174C136.116 51.9553 135.932 51.902 135.759 51.8232C135.349 51.6368 135.018 51.3764 134.907 50.9039C134.863 50.7134 134.794 50.5249 134.709 50.3486C134.567 50.0546 134.319 49.8481 134.067 49.6541C133.94 49.557 133.791 49.4868 133.647 49.4161C133.383 49.2866 133.138 49.1231 132.922 48.9306C132.622 48.6632 132.41 48.3165 132.273 47.9424C132.169 47.6558 132.074 47.3549 132.096 47.0377C131.976 46.6214 132.046 46.1966 132.038 45.7753C132.036 45.6708 132.018 45.5639 132.087 45.4679C132.102 45.4463 132.096 45.4074 132.096 45.3763C132.097 44.8389 132.11 44.3009 132.095 43.7639C132.085 43.4455 131.966 43.1533 131.792 42.8817C131.627 42.6255 131.405 42.4256 131.187 42.2216C131.057 42.0995 130.9 42.0063 130.756 41.8996C130.621 41.7998 130.484 41.7022 130.352 41.5973C130.181 41.4607 129.992 41.3339 129.784 41.3058C129.524 41.2709 129.252 41.2384 128.992 41.3446C128.896 41.3835 128.792 41.4041 128.691 41.4258C128.394 41.4888 128.144 41.6574 127.879 41.7899C127.38 42.0403 126.893 42.3169 126.393 42.565C126.038 42.741 125.655 42.8101 125.257 42.7655C125.152 42.7538 125.107 42.6908 125.154 42.6001C125.256 42.4016 125.369 42.2086 125.478 42.0138C125.517 41.9438 125.556 41.8731 125.599 41.805C125.771 41.5322 125.943 41.2597 126.117 40.988C126.244 40.7894 126.371 40.5908 126.503 40.3955C126.582 40.2774 126.666 40.1609 126.757 40.0514C126.964 39.8029 127.176 39.5588 127.387 39.3135C127.465 39.2226 127.56 39.1805 127.684 39.1877C127.794 39.1939 127.908 39.2005 128.008 39.1256C128.033 39.1065 128.08 39.1142 128.117 39.113C128.273 39.1088 128.431 39.0902 128.585 39.1065C128.827 39.1319 129.054 39.0554 129.283 39.0161C129.578 38.9654 129.83 38.7994 130.065 38.6106C130.239 38.4709 130.423 38.345 130.606 38.2181C130.645 38.1914 130.7 38.1707 130.745 38.1749C131.091 38.2083 131.385 38.0586 131.68 37.9152C131.932 37.7929 132.186 37.6731 132.429 37.5348C132.617 37.428 132.791 37.2958 132.969 37.1721C133.076 37.0979 133.181 37.0198 133.285 36.9407C133.464 36.8031 133.573 36.6112 133.645 36.4055C133.712 36.2174 133.86 36.1621 134.019 36.1497C134.202 36.1353 134.385 36.1321 134.571 36.1953C134.76 36.2595 134.97 36.2632 135.169 36.2986C135.29 36.3202 135.412 36.3425 135.527 36.3811C135.75 36.4552 135.986 36.4757 136.206 36.5418C136.472 36.622 136.734 36.5996 136.998 36.6141C137.238 36.6275 137.457 36.5506 137.682 36.4752C138.02 36.3622 138.313 36.1588 138.644 36.0376C138.885 35.9488 139.12 35.8394 139.385 35.8161C139.49 35.807 139.604 35.7554 139.687 35.6896C139.816 35.5882 139.773 35.4283 139.731 35.3064C139.681 35.1623 139.585 35.0332 139.503 34.9016C139.375 34.6972 139.242 34.4959 139.11 34.2936C139.06 34.2158 139.011 34.1367 138.958 34.0607C138.835 33.8851 138.903 33.7238 139.007 33.5778C139.149 33.3771 139.366 33.2743 139.584 33.1795C139.622 33.1634 139.67 33.1701 139.714 33.1702C140.445 33.1725 141.176 33.1753 141.907 33.1781C141.938 33.1781 141.974 33.1681 141.999 33.1809C142.187 33.2776 142.392 33.2218 142.587 33.2527C142.878 33.2992 143.176 33.3057 143.463 33.3861C143.48 33.391 143.499 33.3918 143.518 33.3945C143.738 33.4254 143.96 33.4478 144.178 33.4899C144.327 33.5187 144.471 33.5754 144.617 33.6182C144.647 33.6268 144.678 33.6347 144.709 33.6336C144.894 33.6278 145.057 33.7065 145.226 33.764C145.353 33.8072 145.487 33.8316 145.616 33.87C145.857 33.9419 146.099 34.0125 146.338 34.0937C146.735 34.229 147.123 34.3876 147.512 34.5461C148.105 34.788 148.663 35.097 149.233 35.3834C149.592 35.564 149.927 35.7926 150.265 36.0123C150.478 36.1506 150.674 36.3139 150.88 36.4624C151.031 36.571 151.187 36.6712 151.338 36.7798C151.464 36.8705 151.59 36.9623 151.708 37.0633C151.953 37.2743 152.202 37.4827 152.433 37.7087C152.898 38.1628 153.363 38.6176 153.806 39.0928C154.067 39.373 154.334 39.655 154.518 39.9993C154.585 40.1239 154.671 40.2381 154.748 40.3555C154.688 40.4657 154.606 40.5034 154.496 40.5023H154.497Z"/>
</mask>
<path d="M160.668 52.3952V48.9438C160.581 48.9446 160.591 48.8809 160.591 48.8255C160.591 48.6942 160.595 48.563 160.594 48.4319C160.593 48.328 160.595 48.2301 160.539 48.1268C160.497 48.0476 160.522 47.9322 160.519 47.8327C160.516 47.7532 160.533 47.673 160.459 47.6076C160.434 47.5855 160.435 47.527 160.435 47.4853C160.436 47.3565 160.469 47.2245 160.372 47.1101C160.356 47.0906 160.363 47.0501 160.361 47.0192C160.354 46.8859 160.4 46.7427 160.291 46.6276C160.339 46.4565 160.145 46.3288 160.205 46.1529C160.213 46.1321 160.184 46.0982 160.17 46.0712C160.156 46.044 160.126 46.0175 160.127 45.9919C160.135 45.8482 160.091 45.7165 160.062 45.579C160.026 45.4044 159.971 45.2428 159.907 45.0791C159.861 44.9629 159.871 44.816 159.803 44.7197C159.704 44.5776 159.759 44.4088 159.67 44.264C159.583 44.1235 159.561 43.9447 159.501 43.7859C159.471 43.7066 159.42 43.6353 159.382 43.559C159.366 43.5267 159.344 43.4886 159.349 43.4567C159.364 43.35 159.313 43.2667 159.275 43.1745C159.16 42.8977 159.014 42.6329 158.907 42.3569C158.809 42.1037 158.687 41.8659 158.57 41.6243C158.498 41.4767 158.403 41.3409 158.325 41.1958C158.221 41.0012 158.126 40.8019 158.024 40.6062C157.996 40.5525 157.962 40.5001 157.922 40.4548C157.853 40.3769 157.754 40.319 157.78 40.1893C157.783 40.1702 157.762 40.1446 157.748 40.1242C157.651 39.9759 157.572 39.8113 157.452 39.685C157.309 39.5338 157.223 39.3532 157.113 39.1839C156.953 38.9377 156.742 38.7254 156.584 38.4783C156.583 38.4764 156.581 38.4752 156.58 38.4732C156.488 38.3321 156.353 38.2281 156.275 38.0895C156.174 37.9098 155.999 37.8001 155.895 37.6359C155.648 37.2453 155.279 36.9726 154.97 36.6426C154.658 36.3097 154.327 35.9956 154.004 35.6735C153.987 35.6557 153.97 35.6273 153.95 35.6238C153.793 35.5975 153.728 35.4557 153.619 35.3692C153.577 35.3353 153.529 35.3087 153.482 35.2801C153.467 35.2704 153.439 35.2687 153.434 35.2565C153.366 35.086 153.183 35.0348 153.072 34.9056C152.987 34.8059 152.865 34.7261 152.745 34.6717C152.654 34.6308 152.597 34.5641 152.525 34.5069C152.386 34.3959 152.238 34.2969 152.099 34.186C151.907 34.0334 151.669 33.9588 151.483 33.7882C151.324 33.6422 151.124 33.5378 150.921 33.4457C150.733 33.3604 150.559 33.2425 150.38 33.1378C150.255 33.0651 150.134 32.9872 150.008 32.9177C149.956 32.8891 149.895 32.877 149.838 32.856C149.804 32.8433 149.763 32.8365 149.74 32.8124C149.575 32.6431 149.349 32.5761 149.145 32.4857C149.032 32.4357 148.912 32.3826 148.793 32.3436C148.669 32.3034 148.567 32.2422 148.458 32.1753C148.306 32.0827 148.116 32.0528 147.944 31.9913C147.818 31.9462 147.696 31.8902 147.57 31.8447C147.41 31.787 147.247 31.7368 147.087 31.68C146.978 31.6414 146.871 31.597 146.763 31.5556C146.74 31.5466 146.717 31.5317 146.694 31.5321C146.51 31.5349 146.355 31.4489 146.19 31.3875C146.065 31.3413 145.93 31.3234 145.801 31.291C145.759 31.2806 145.72 31.2627 145.68 31.2508C145.633 31.2367 145.586 31.2178 145.538 31.2145C145.435 31.2071 145.326 31.2434 145.24 31.1474C145.225 31.1304 145.18 31.1425 145.15 31.1357C145.086 31.1209 145.022 31.1022 144.959 31.086C144.917 31.0757 144.876 31.0648 144.834 31.0581C144.797 31.0523 144.749 31.066 144.724 31.0471C144.602 30.9537 144.456 31.009 144.33 30.9741C144.15 30.9246 143.958 30.9406 143.792 30.8851C143.637 30.833 143.492 30.8337 143.34 30.8237C143.315 30.8221 143.285 30.83 143.266 30.8191C143.045 30.6914 142.803 30.7651 142.571 30.7461C142.505 30.7407 142.439 30.7575 142.379 30.6996C142.35 30.6714 142.288 30.6696 142.24 30.6695C141.203 30.6679 140.166 30.6682 139.129 30.6684C139.098 30.6684 139.057 30.6581 139.037 30.6737C138.877 30.8019 138.691 30.7279 138.517 30.7447C138.389 30.7572 138.264 30.7367 138.137 30.8061C138.059 30.8491 137.941 30.8165 137.842 30.8274C137.771 30.8354 137.701 30.8588 137.632 30.8767C137.614 30.8812 137.596 30.9016 137.581 30.8986C137.354 30.8497 137.151 30.992 136.929 30.9802C136.836 30.9753 136.747 31.0223 136.663 31.0334C136.493 31.056 136.342 31.1416 136.164 31.1437C136.031 31.1453 135.899 31.2185 135.767 31.2608C135.738 31.2701 135.709 31.2961 135.682 31.2934C135.47 31.2722 135.291 31.3717 135.099 31.431C134.978 31.468 134.848 31.4771 134.727 31.5254C134.603 31.575 134.474 31.6129 134.348 31.6563C134.25 31.6898 134.152 31.7231 134.054 31.7574C133.979 31.7833 133.907 31.8165 133.831 31.8368C133.601 31.8986 133.396 32.0209 133.167 32.0895C132.899 32.1697 132.643 32.289 132.403 32.4387C132.328 32.485 132.229 32.4891 132.148 32.527C131.864 32.6596 131.574 32.7833 131.305 32.9418C131.154 33.0302 131.001 33.1176 130.856 33.2139C130.743 33.2892 130.624 33.3482 130.509 33.4154C130.33 33.5192 130.162 33.6424 129.989 33.7565C129.964 33.7731 129.934 33.784 129.907 33.797C129.718 33.8867 129.548 34.0056 129.379 34.1278C129.27 34.2064 129.152 34.2727 129.039 34.3439C129.023 34.3538 129.003 34.358 128.989 34.3694C128.841 34.4892 128.707 34.634 128.542 34.7245C128.334 34.8393 128.209 35.0572 127.984 35.1441C127.962 35.1525 127.947 35.1765 127.928 35.1932C127.688 35.4071 127.443 35.6154 127.209 35.8361C126.973 36.0591 126.749 36.2944 126.519 36.5243C126.272 36.7717 126.019 37.014 125.779 37.2679C125.575 37.4831 125.367 37.6987 125.197 37.9396C125.104 38.0726 124.993 38.1856 124.895 38.3116C124.783 38.4557 124.689 38.6138 124.585 38.7645C124.565 38.7952 124.537 38.8222 124.51 38.8478C124.382 38.97 124.306 39.1288 124.213 39.2749C124.211 39.2781 124.209 39.2809 124.207 39.2839C124.144 39.3816 124.078 39.4778 124.015 39.5753C123.968 39.6471 123.928 39.7231 123.877 39.7917C123.725 39.9979 123.636 40.2435 123.468 40.4406C123.433 40.4811 123.417 40.5387 123.396 40.5899C123.323 40.7713 123.147 40.8966 123.119 41.1026C122.841 41.4023 122.715 41.7885 122.549 42.1475C122.432 42.4011 122.297 42.6481 122.198 42.9073C122.122 43.1098 122.036 43.3126 121.973 43.5171C121.894 43.7727 121.752 44.0024 121.704 44.271C121.669 44.4646 121.571 44.6469 121.501 44.8341C121.495 44.8515 121.482 44.8692 121.483 44.8864C121.487 45.0761 121.404 45.2396 121.333 45.4075C121.321 45.4347 121.322 45.4697 121.325 45.5C121.344 45.6855 121.251 45.8401 121.191 46.004C121.179 46.038 121.17 46.0754 121.169 46.1115C121.165 46.2207 121.202 46.3356 121.098 46.4261C121.079 46.4435 121.093 46.4977 121.088 46.5346C121.083 46.5774 121.089 46.632 121.065 46.6597C121.005 46.7301 121.012 46.8088 121.01 46.8896C121.008 46.9987 121.043 47.1143 120.944 47.2061C120.927 47.2219 120.932 47.2654 120.932 47.2961C120.931 47.4309 120.95 47.5626 120.867 47.6914C120.83 47.7495 120.859 47.8497 120.857 47.9308C120.854 48.0227 120.869 48.1154 120.8 48.1985C120.773 48.2308 120.778 48.2935 120.778 48.3423C120.777 48.5047 120.781 48.667 120.784 48.8295C120.785 48.9092 120.77 48.9703 120.668 48.9439V52.3954C120.772 52.3654 120.785 52.4289 120.784 52.5077C120.781 52.6639 120.779 52.82 120.777 52.9762C120.777 53.0199 120.763 53.0764 120.784 53.1048C120.891 53.245 120.845 53.404 120.855 53.5561C120.857 53.5931 120.846 53.6447 120.866 53.6651C120.964 53.7649 120.923 53.8874 120.936 54.0016C120.943 54.0662 120.972 54.128 120.985 54.1922C120.998 54.2515 121.007 54.3122 121.01 54.3726C121.017 54.4824 120.988 54.5958 121.072 54.6942C121.095 54.7212 121.08 54.7788 121.089 54.8209C121.099 54.8672 121.117 54.9121 121.13 54.9579C121.143 55.0039 121.165 55.0502 121.166 55.0969C121.169 55.1659 121.158 55.2343 121.22 55.2864C121.233 55.2973 121.247 55.3215 121.243 55.335C121.193 55.5208 121.313 55.6791 121.327 55.8556C121.337 55.9728 121.393 56.0865 121.429 56.2013C121.444 56.2466 121.462 56.291 121.481 56.3345C121.58 56.5566 121.574 56.8103 121.694 57.0274C121.731 57.095 121.742 57.1765 121.768 57.2511C121.828 57.4292 121.887 57.6078 121.951 57.7847C122.003 57.9277 122.061 58.0681 122.116 58.2104C122.139 58.2722 122.16 58.335 122.181 58.3975C122.185 58.4092 122.182 58.4276 122.189 58.4331C122.358 58.5554 122.345 58.7701 122.44 58.9303C122.501 59.0314 122.519 59.1571 122.575 59.2622C122.66 59.4239 122.705 59.6099 122.851 59.7384C122.874 59.7589 122.872 59.8066 122.885 59.8402C122.923 59.9358 122.944 60.0477 123.008 60.1213C123.074 60.1978 123.119 60.2801 123.166 60.3659C123.266 60.5483 123.373 60.7266 123.475 60.9079C123.571 61.0781 123.641 61.2693 123.765 61.4159C123.898 61.5736 124.005 61.7389 124.099 61.92C124.181 62.0761 124.29 62.2177 124.388 62.3651C124.402 62.3857 124.419 62.4046 124.438 62.4208C124.617 62.5769 124.747 62.7685 124.852 62.9802C124.874 63.023 124.92 63.0526 124.951 63.0912C125.021 63.1769 125.087 63.2656 125.157 63.3502C125.175 63.3716 125.206 63.3818 125.23 63.3986C125.254 63.4155 125.295 63.4316 125.298 63.4522C125.311 63.558 125.393 63.6117 125.46 63.6729C125.557 63.7615 125.612 63.8787 125.689 63.9793C125.783 64.1019 125.907 64.2021 126.017 64.3125C126.467 64.7633 126.915 65.216 127.368 65.6639C127.436 65.7318 127.529 65.7748 127.604 65.837C127.681 65.9003 127.747 65.9766 127.823 66.0405C127.903 66.107 127.989 66.1656 128.072 66.2279C128.092 66.2426 128.112 66.2574 128.131 66.2733C128.305 66.4202 128.467 66.5874 128.658 66.7097C128.929 66.8845 129.152 67.1368 129.472 67.2367C129.499 67.2453 129.525 67.2709 129.544 67.294C129.714 67.4969 129.978 67.5725 130.163 67.7552C130.404 67.7273 130.485 67.9792 130.677 68.0508C130.921 68.1417 131.15 68.2774 131.382 68.3993C131.484 68.4528 131.577 68.5242 131.678 68.5793C131.84 68.6671 131.999 68.7683 132.172 68.8271C132.435 68.9164 132.668 69.0654 132.922 69.1677C133.046 69.2177 133.173 69.2593 133.293 69.3214C133.315 69.3325 133.341 69.3426 133.364 69.3407C133.522 69.3279 133.642 69.4121 133.774 69.4795C133.925 69.5564 134.097 69.5904 134.252 69.6592C134.447 69.7453 134.681 69.715 134.853 69.8661C134.874 69.8841 134.912 69.8889 134.941 69.889C135.105 69.8903 135.246 69.9682 135.395 70.0208C135.435 70.035 135.478 70.0392 135.52 70.0494C135.583 70.0652 135.646 70.0829 135.71 70.0984C135.752 70.1084 135.794 70.121 135.836 70.1233C135.939 70.1289 136.046 70.0984 136.133 70.1929C136.154 70.2158 136.217 70.2063 136.26 70.2019C136.317 70.1963 136.372 70.1865 136.411 70.2442C136.417 70.2542 136.427 70.2666 136.438 70.2687C136.587 70.2998 136.735 70.3367 136.885 70.3563C137 70.3712 137.112 70.3525 137.226 70.4186C137.298 70.4604 137.409 70.4344 137.502 70.4383C137.539 70.4398 137.593 70.4244 137.61 70.4433C137.713 70.5535 137.843 70.5069 137.963 70.5153C138.049 70.5213 138.135 70.5072 138.214 70.5679C138.248 70.5941 138.308 70.5907 138.357 70.5914C138.526 70.5939 138.694 70.5927 138.863 70.5923C138.915 70.5923 138.967 70.5892 138.962 70.6657H142.373C142.405 70.5992 142.46 70.5897 142.529 70.5923C142.672 70.5976 142.816 70.5955 142.96 70.5937C143.046 70.5925 143.125 70.5867 143.21 70.5406C143.279 70.5025 143.379 70.5193 143.465 70.5149C143.562 70.51 143.663 70.5402 143.746 70.4516C143.767 70.4284 143.828 70.4421 143.87 70.4386C143.99 70.4286 144.122 70.477 144.221 70.366C144.228 70.3584 144.246 70.3549 144.257 70.357C144.464 70.394 144.659 70.327 144.855 70.278C145.007 70.2402 145.155 70.1901 145.305 70.1447C145.323 70.1394 145.341 70.1214 145.356 70.1245C145.535 70.1642 145.693 70.0701 145.861 70.0443C145.98 70.0263 146.095 69.9778 146.212 69.9436C146.275 69.925 146.34 69.9087 146.403 69.8899C146.526 69.8541 146.647 69.8117 146.771 69.782C146.967 69.7348 147.131 69.6111 147.332 69.5672C147.531 69.5241 147.716 69.4202 147.911 69.3582C148.239 69.2547 148.563 69.1396 148.854 68.9575C148.987 68.8736 149.143 68.8808 149.275 68.8025C149.439 68.7059 149.635 68.6557 149.781 68.5406C149.994 68.3733 150.24 68.2824 150.473 68.1609C150.506 68.144 150.533 68.117 150.561 68.0926C150.584 68.0721 150.608 68.0278 150.627 68.0301C150.789 68.0496 150.875 67.9094 151.003 67.8575C151.02 67.8504 151.041 67.8468 151.053 67.8343C151.221 67.6581 151.463 67.6022 151.652 67.4595C151.759 67.3781 151.87 67.3014 151.981 67.2239C152.061 67.1677 152.142 67.1137 152.223 67.0589C152.375 66.9563 152.527 66.8536 152.678 66.751C152.684 66.7475 152.689 66.7439 152.694 66.7399C152.854 66.6062 153.015 66.4718 153.176 66.339C153.319 66.2219 153.464 66.1084 153.604 65.9889C153.666 65.9364 153.718 65.8727 153.773 65.8138C153.79 65.7957 153.804 65.7622 153.822 65.7601C153.999 65.7406 154.077 65.5906 154.184 65.4851C154.665 65.0119 155.14 64.5334 155.614 64.0537C155.669 63.9986 155.702 63.9231 155.748 63.8589C155.773 63.8243 155.8 63.7913 155.83 63.7612C155.94 63.6501 156.086 63.5587 156.154 63.4265C156.261 63.219 156.461 63.0947 156.565 62.8843C156.644 62.7231 156.792 62.5962 156.905 62.4504C156.991 62.3388 157.072 62.2232 157.151 62.1067C157.241 61.9754 157.327 61.8419 157.412 61.7078C157.49 61.5843 157.576 61.4638 157.64 61.3332C157.725 61.1627 157.846 61.0184 157.949 60.8612C157.962 60.8405 157.997 60.8217 157.996 60.8051C157.975 60.622 158.143 60.531 158.198 60.3841C158.254 60.2355 158.32 60.0844 158.414 59.9577C158.554 59.7677 158.648 59.5557 158.756 59.3501C158.809 59.2487 158.883 59.1567 158.871 59.0267C158.867 58.9835 158.933 58.9384 158.951 58.8886C159.024 58.6879 159.164 58.5194 159.206 58.2995C159.236 58.1421 159.332 57.9979 159.395 57.8461C159.432 57.7566 159.48 57.6665 159.491 57.5728C159.522 57.301 159.679 57.0749 159.75 56.8174C159.799 56.6433 159.883 56.4817 159.899 56.2945C159.908 56.1899 159.97 56.0904 160.005 55.9877C160.023 55.9369 160.035 55.8839 160.049 55.8319C160.066 55.7742 160.084 55.717 160.098 55.6587C160.109 55.6117 160.12 55.5636 160.123 55.5156C160.13 55.4184 160.101 55.3162 160.189 55.2346C160.21 55.2155 160.197 55.163 160.205 55.1273C160.218 55.0685 160.235 55.0107 160.251 54.9527C160.26 54.9176 160.273 54.8832 160.281 54.8476C160.285 54.8298 160.274 54.8069 160.282 54.7921C160.371 54.6202 160.375 54.4378 160.353 54.2513C160.351 54.2352 160.36 54.2101 160.372 54.201C160.481 54.1215 160.438 54.0079 160.437 53.9071C160.436 53.826 160.415 53.7479 160.492 53.6833C160.513 53.6647 160.515 53.6151 160.516 53.5794C160.521 53.4142 160.522 53.2564 160.579 53.0895C160.633 52.9328 160.593 52.7435 160.594 52.5688C160.594 52.5252 160.587 52.4798 160.598 52.4393C160.603 52.4201 160.643 52.4103 160.667 52.3964L160.668 52.3952ZM137.562 35.1081C137.55 35.3595 137.33 35.5864 137.095 35.6717C136.911 35.7382 136.732 35.7384 136.467 35.7477C136.097 35.7726 135.684 35.6334 135.326 35.3841C135.049 35.1911 134.784 34.9589 134.64 34.6338C134.591 34.5224 134.534 34.3982 134.54 34.2825C134.548 34.1185 134.643 33.9749 134.792 33.8896C134.897 33.8289 135.007 33.7663 135.141 33.7875C135.217 33.7996 135.28 33.7735 135.342 33.7166C135.552 33.5243 135.805 33.5433 136.06 33.594C136.107 33.6035 136.153 33.6287 136.2 33.6335C136.644 33.6763 137.025 33.8479 137.307 34.2004C137.381 34.2943 137.417 34.4192 137.475 34.5271C137.574 34.711 137.572 34.9093 137.563 35.1083L137.562 35.1081ZM154.497 40.5023C154.247 40.4999 153.996 40.516 153.748 40.4971C153.585 40.4848 153.423 40.4339 153.266 40.3834C152.931 40.276 152.603 40.1528 152.24 40.1772C152.056 40.1897 151.9 40.2495 151.771 40.3771C151.563 40.5836 151.364 40.801 151.148 40.9994C151.027 41.1114 150.872 41.1868 150.744 41.2926C150.551 41.4511 150.308 41.4846 150.089 41.5778C149.972 41.6274 149.84 41.6429 149.713 41.6643C149.675 41.6706 149.631 41.6448 149.59 41.6338C149.548 41.6227 149.506 41.6013 149.465 41.6018C149.303 41.6039 149.183 41.5171 149.068 41.4214C148.751 41.1582 148.528 40.8241 148.351 40.4558C148.212 40.1667 148.104 39.8671 148.024 39.5562C147.958 39.3013 147.878 39.0502 147.811 38.7957C147.793 38.7305 147.79 38.659 147.792 38.591C147.798 38.4157 147.772 38.2449 147.712 38.0823C147.687 38.0151 147.622 37.9638 147.59 37.8979C147.446 37.5966 147.215 37.3597 147.018 37.0974C146.894 36.9328 146.781 36.7603 146.625 36.6268C146.464 36.4887 146.262 36.4294 146.064 36.3544C145.844 36.2709 145.604 36.3385 145.395 36.2218C145.347 36.1942 145.273 36.2088 145.211 36.2072C144.974 36.2009 144.735 36.2093 144.5 36.1867C144.216 36.1595 143.943 36.1023 143.739 35.864C143.58 35.6798 143.396 35.5183 143.221 35.3485C143.13 35.2595 143.021 35.2062 142.893 35.1864C142.651 35.149 142.521 35.3085 142.413 35.4762C142.302 35.6485 142.228 35.8379 142.241 36.0556C142.253 36.2785 142.243 36.5024 142.243 36.7454C142.365 36.7503 142.475 36.7589 142.585 36.758C142.884 36.7559 143.17 36.8205 143.456 36.9051C143.923 37.0433 144.353 37.2644 144.777 37.4934C145.038 37.6341 145.274 37.8201 145.529 37.9723C145.754 38.1067 145.952 38.2748 146.16 38.4308C146.296 38.5329 146.379 38.6627 146.483 38.7826C146.562 38.8735 146.564 38.9508 146.482 39.0323C146.372 39.1412 146.25 39.2395 146.129 39.3364C146.003 39.4371 145.873 39.532 145.743 39.6266C145.582 39.7427 145.411 39.8449 145.261 39.9731C145.067 40.1393 144.889 40.3248 144.706 40.5041C144.686 40.5244 144.664 40.5595 144.666 40.5859C144.684 40.8001 144.566 40.95 144.437 41.0967C144.431 41.1033 144.436 41.1198 144.436 41.1409C144.53 41.1693 144.578 41.1 144.638 41.0486C144.731 40.9682 144.824 40.8861 144.926 40.8178C145.147 40.6697 145.353 40.7483 145.545 40.8831C145.827 41.0798 145.98 41.3595 146.077 41.6841C146.12 41.8292 146.246 41.9287 146.381 42.001C146.518 42.0744 146.657 42.1458 146.798 42.2112C147.079 42.3425 147.265 42.5478 147.327 42.8592C147.34 42.9247 147.386 42.9854 147.391 43.0505C147.418 43.4012 147.282 43.6687 146.991 43.8759C146.683 44.095 146.331 44.2237 146.006 44.4062C145.822 44.5093 145.687 44.6636 145.554 44.8206C145.535 44.8422 145.527 44.8771 145.525 44.9068C145.503 45.1529 145.375 45.3428 145.227 45.5332C145.081 45.7206 144.942 45.9118 144.761 46.0663C144.506 46.2842 144.247 46.496 143.988 46.7092C143.81 46.8555 143.634 47.0034 143.452 47.144C143.305 47.2575 143.149 47.3596 142.999 47.4698C142.869 47.5651 142.741 47.6634 142.614 47.762C142.457 47.8841 142.301 48.0078 142.145 48.1315C142.028 48.2238 141.907 48.3115 141.797 48.4116C141.674 48.5228 141.678 48.5753 141.737 48.7237C141.878 49.0783 142.019 49.4331 142.144 49.7937C142.224 50.025 142.124 50.2164 141.906 50.3205C141.822 50.2985 141.74 50.2894 141.669 50.2559C141.391 50.1245 141.177 49.9148 141.011 49.6609C140.884 49.4651 140.759 49.2847 140.487 49.3221C140.19 49.2168 139.88 49.2517 139.582 49.2749C139.33 49.2943 139.078 49.3228 138.825 49.331C138.7 49.3351 138.574 49.3329 138.45 49.3424C138.377 49.348 138.307 49.3747 138.234 49.3851C138.142 49.3982 138.05 49.4063 137.957 49.4126C137.853 49.4198 137.747 49.4226 137.633 49.4277C137.627 49.4837 137.618 49.5254 137.619 49.5667C137.625 49.7665 137.62 49.968 137.645 50.1655C137.671 50.3782 137.733 50.5861 137.768 50.7983C137.789 50.9218 137.816 51.0383 137.868 51.1541C137.943 51.3187 138.023 51.468 138.235 51.5161C138.354 51.4689 138.499 51.4293 138.626 51.3568C138.797 51.2587 138.964 51.1473 139.115 51.0199C139.278 50.8822 139.477 50.835 139.665 50.7632C139.78 50.7195 139.967 50.8678 139.972 50.9992C139.975 51.0708 139.956 51.1468 139.931 51.2148C139.875 51.365 139.808 51.5112 139.749 51.6602C139.738 51.6874 139.74 51.7198 139.736 51.7572C140.142 51.7865 140.362 52.0524 140.547 52.3664C140.68 52.5923 140.757 52.8388 140.845 53.0834C140.887 53.2011 141.001 53.3155 141.112 53.3817C141.306 53.4982 141.522 53.5647 141.76 53.5721C142.043 53.5807 142.29 53.4872 142.544 53.387C142.807 53.2834 143.06 53.1574 143.336 53.088C143.567 53.0299 143.788 52.935 144.019 52.8774C144.144 52.8463 144.28 52.8634 144.41 52.8511C144.513 52.8413 144.615 52.8177 144.718 52.8042C144.761 52.7986 144.805 52.7986 144.847 52.8044C144.944 52.8177 145.042 52.8548 145.137 52.8484C145.327 52.836 145.486 52.9283 145.659 52.9723C145.814 53.0118 145.972 53.0464 146.119 53.106C146.299 53.1789 146.494 53.1403 146.666 53.191C146.895 53.2585 147.124 53.2175 147.347 53.2596C147.637 53.3147 147.912 53.4106 148.168 53.5791C148.441 53.7595 148.659 53.9985 148.91 54.2008C149.005 54.2775 149.065 54.3959 149.154 54.4812C149.383 54.7005 149.607 54.9304 149.858 55.122C150.123 55.3238 150.395 55.5331 150.709 55.6487C150.972 55.746 151.225 55.8865 151.514 55.9144C151.578 55.9207 151.638 55.9688 151.703 55.9885C151.941 56.0606 152.14 56.189 152.299 56.3817C152.361 56.4569 152.397 56.5317 152.401 56.6331C152.41 56.8263 152.358 56.9944 152.274 57.1679C152.144 57.435 151.959 57.6587 151.774 57.8842C151.507 58.2113 151.233 58.5334 150.963 58.8591C150.936 58.8921 150.919 58.934 150.9 58.973C150.769 59.2355 150.601 59.4722 150.431 59.7117C150.227 60.0016 149.976 60.2411 149.724 60.4803C149.527 60.6671 149.304 60.8266 149.087 60.9914C148.874 61.1525 148.661 61.3136 148.437 61.4588C148.157 61.6413 147.865 61.807 147.579 61.981C147.521 62.0165 147.458 62.0489 147.41 62.0958C147.196 62.3053 146.976 62.5106 146.777 62.7347C146.596 62.9384 146.44 63.1642 146.273 63.3799C146.254 63.4044 146.23 63.4255 146.211 63.4502C146.052 63.6564 145.894 63.8635 145.735 64.0693C145.61 64.2311 145.477 64.3879 145.357 64.5532C145.226 64.734 145.104 64.9215 144.979 65.107C144.837 65.3179 144.694 65.5283 144.556 65.742C144.506 65.8199 144.469 65.9064 144.427 65.9894C144.294 66.2535 144.133 66.4997 143.903 66.6874C143.707 66.8478 143.5 66.997 143.288 67.1373C142.911 67.3883 142.516 67.6113 142.104 67.8004C141.881 67.9024 141.654 67.9931 141.416 68.0943C141.405 68.0503 141.389 68.0168 141.389 67.9835C141.394 67.7024 141.366 67.4142 141.418 67.1417C141.483 66.7997 141.44 66.4592 141.476 66.1205C141.491 65.981 141.532 65.8431 141.572 65.7078C141.639 65.4848 141.711 65.2635 141.787 65.0437C141.88 64.7759 141.981 64.5113 142.074 64.2439C142.166 63.9824 142.249 63.7182 142.341 63.4567C142.407 63.2669 142.512 63.0844 142.543 62.8894C142.579 62.6662 142.677 62.4667 142.725 62.2497C142.777 62.0165 142.875 61.7938 142.942 61.5634C142.983 61.422 143.001 61.2744 143.034 61.1305C143.078 60.9396 143.134 60.7514 143.169 60.5592C143.192 60.4374 143.183 60.3104 143.197 60.1867C143.207 60.1021 143.237 60.02 143.246 59.9354C143.253 59.8703 143.246 59.8028 143.237 59.7373C143.23 59.6894 143.196 59.6422 143.2 59.5968C143.224 59.2952 143.062 59.0579 142.925 58.8181C142.837 58.6635 142.717 58.5208 142.588 58.398C142.435 58.2534 142.265 58.1241 142.089 58.0093C141.824 57.837 141.541 57.6938 141.278 57.5185C141.021 57.3468 140.753 57.1953 140.529 56.9683C140.263 56.6996 140.246 56.3275 140.349 55.966C140.424 55.6993 140.555 55.4615 140.688 55.2246C140.778 55.0632 140.893 54.9153 141 54.7633C141.071 54.6626 141.146 54.5652 141.233 54.4491C141.152 54.3822 141.072 54.3164 140.992 54.2506C140.949 54.2152 140.902 54.1831 140.862 54.1443C140.642 53.9316 140.437 53.7003 140.2 53.5079C139.952 53.3055 139.722 53.0683 139.412 52.953C139.229 52.8844 139.04 52.8295 138.853 52.7711C138.696 52.7219 138.538 52.6744 138.379 52.6302C138.26 52.5972 138.139 52.5744 138.021 52.5402C137.779 52.4705 137.54 52.3949 137.299 52.3249C137.175 52.2887 137.047 52.2648 136.924 52.2262C136.714 52.1606 136.505 52.089 136.297 52.0174C136.116 51.9553 135.932 51.902 135.759 51.8232C135.349 51.6368 135.018 51.3764 134.907 50.9039C134.863 50.7134 134.794 50.5249 134.709 50.3486C134.567 50.0546 134.319 49.8481 134.067 49.6541C133.94 49.557 133.791 49.4868 133.647 49.4161C133.383 49.2866 133.138 49.1231 132.922 48.9306C132.622 48.6632 132.41 48.3165 132.273 47.9424C132.169 47.6558 132.074 47.3549 132.096 47.0377C131.976 46.6214 132.046 46.1966 132.038 45.7753C132.036 45.6708 132.018 45.5639 132.087 45.4679C132.102 45.4463 132.096 45.4074 132.096 45.3763C132.097 44.8389 132.11 44.3009 132.095 43.7639C132.085 43.4455 131.966 43.1533 131.792 42.8817C131.627 42.6255 131.405 42.4256 131.187 42.2216C131.057 42.0995 130.9 42.0063 130.756 41.8996C130.621 41.7998 130.484 41.7022 130.352 41.5973C130.181 41.4607 129.992 41.3339 129.784 41.3058C129.524 41.2709 129.252 41.2384 128.992 41.3446C128.896 41.3835 128.792 41.4041 128.691 41.4258C128.394 41.4888 128.144 41.6574 127.879 41.7899C127.38 42.0403 126.893 42.3169 126.393 42.565C126.038 42.741 125.655 42.8101 125.257 42.7655C125.152 42.7538 125.107 42.6908 125.154 42.6001C125.256 42.4016 125.369 42.2086 125.478 42.0138C125.517 41.9438 125.556 41.8731 125.599 41.805C125.771 41.5322 125.943 41.2597 126.117 40.988C126.244 40.7894 126.371 40.5908 126.503 40.3955C126.582 40.2774 126.666 40.1609 126.757 40.0514C126.964 39.8029 127.176 39.5588 127.387 39.3135C127.465 39.2226 127.56 39.1805 127.684 39.1877C127.794 39.1939 127.908 39.2005 128.008 39.1256C128.033 39.1065 128.08 39.1142 128.117 39.113C128.273 39.1088 128.431 39.0902 128.585 39.1065C128.827 39.1319 129.054 39.0554 129.283 39.0161C129.578 38.9654 129.83 38.7994 130.065 38.6106C130.239 38.4709 130.423 38.345 130.606 38.2181C130.645 38.1914 130.7 38.1707 130.745 38.1749C131.091 38.2083 131.385 38.0586 131.68 37.9152C131.932 37.7929 132.186 37.6731 132.429 37.5348C132.617 37.428 132.791 37.2958 132.969 37.1721C133.076 37.0979 133.181 37.0198 133.285 36.9407C133.464 36.8031 133.573 36.6112 133.645 36.4055C133.712 36.2174 133.86 36.1621 134.019 36.1497C134.202 36.1353 134.385 36.1321 134.571 36.1953C134.76 36.2595 134.97 36.2632 135.169 36.2986C135.29 36.3202 135.412 36.3425 135.527 36.3811C135.75 36.4552 135.986 36.4757 136.206 36.5418C136.472 36.622 136.734 36.5996 136.998 36.6141C137.238 36.6275 137.457 36.5506 137.682 36.4752C138.02 36.3622 138.313 36.1588 138.644 36.0376C138.885 35.9488 139.12 35.8394 139.385 35.8161C139.49 35.807 139.604 35.7554 139.687 35.6896C139.816 35.5882 139.773 35.4283 139.731 35.3064C139.681 35.1623 139.585 35.0332 139.503 34.9016C139.375 34.6972 139.242 34.4959 139.11 34.2936C139.06 34.2158 139.011 34.1367 138.958 34.0607C138.835 33.8851 138.903 33.7238 139.007 33.5778C139.149 33.3771 139.366 33.2743 139.584 33.1795C139.622 33.1634 139.67 33.1701 139.714 33.1702C140.445 33.1725 141.176 33.1753 141.907 33.1781C141.938 33.1781 141.974 33.1681 141.999 33.1809C142.187 33.2776 142.392 33.2218 142.587 33.2527C142.878 33.2992 143.176 33.3057 143.463 33.3861C143.48 33.391 143.499 33.3918 143.518 33.3945C143.738 33.4254 143.96 33.4478 144.178 33.4899C144.327 33.5187 144.471 33.5754 144.617 33.6182C144.647 33.6268 144.678 33.6347 144.709 33.6336C144.894 33.6278 145.057 33.7065 145.226 33.764C145.353 33.8072 145.487 33.8316 145.616 33.87C145.857 33.9419 146.099 34.0125 146.338 34.0937C146.735 34.229 147.123 34.3876 147.512 34.5461C148.105 34.788 148.663 35.097 149.233 35.3834C149.592 35.564 149.927 35.7926 150.265 36.0123C150.478 36.1506 150.674 36.3139 150.88 36.4624C151.031 36.571 151.187 36.6712 151.338 36.7798C151.464 36.8705 151.59 36.9623 151.708 37.0633C151.953 37.2743 152.202 37.4827 152.433 37.7087C152.898 38.1628 153.363 38.6176 153.806 39.0928C154.067 39.373 154.334 39.655 154.518 39.9993C154.585 40.1239 154.671 40.2381 154.748 40.3555C154.688 40.4657 154.606 40.5034 154.496 40.5023H154.497Z" fill="#FCBE11" stroke="#01426E" stroke-width="2" mask="url(#path-4-inside-1_127_106)"/>
</svg>
