<svg viewBox="0 0 20 20" fill="none" xmlns="http://www.w3.org/2000/svg">
<path d="M0.425019 9.91302C0.424553 11.599 0.865079 13.2452 1.70273 14.6962L0.34491 19.6538L5.41843 18.3235C6.8217 19.0874 8.39396 19.4877 9.99169 19.4879H9.99589C15.2703 19.4879 19.5638 15.1959 19.5661 9.92056C19.5671 7.36428 18.5725 4.96052 16.7654 3.15206C14.9587 1.34375 12.5557 0.347358 9.9955 0.346191C4.72046 0.346191 0.427275 4.6379 0.425097 9.91302" fill="url(#paint0_linear_25_969)"/>
<path d="M0.0832209 9.90997C0.0826764 11.6566 0.538991 13.3617 1.40651 14.8646L0 20L5.25544 18.622C6.70348 19.4115 8.33383 19.8278 9.99281 19.8284H9.99708C15.4607 19.8284 19.9085 15.3821 19.9108 9.91791C19.9117 7.26977 18.8813 4.7796 17.0097 2.90635C15.1379 1.03334 12.649 0.00108887 9.99708 0C4.5325 0 0.0853986 4.44571 0.0832209 9.90997ZM3.21303 14.6058L3.0168 14.2943C2.1919 12.9827 1.7565 11.467 1.75713 9.9106C1.75884 5.36884 5.45509 1.67375 10.0002 1.67375C12.2013 1.67468 14.2698 2.53271 15.8257 4.08949C17.3814 5.64642 18.2375 7.71605 18.237 9.91728C18.2349 14.459 14.5386 18.1546 9.99708 18.1546H9.99382C8.51505 18.1538 7.06475 17.7567 5.79995 17.0062L5.49896 16.8277L2.38027 17.6454L3.21303 14.6058Z" fill="url(#paint1_linear_25_969)"/>
<path d="M7.51959 5.76678C7.33401 5.35433 7.13871 5.346 6.96224 5.33877C6.81773 5.33255 6.65253 5.33302 6.48749 5.33302C6.32229 5.33302 6.05389 5.39516 5.82701 5.64288C5.59991 5.89083 4.95996 6.49002 4.95996 7.7087C4.95996 8.92738 5.84762 10.1052 5.97137 10.2707C6.09526 10.4358 7.68502 13.0167 10.2028 14.0096C12.2953 14.8347 12.7211 14.6706 13.1753 14.6293C13.6295 14.588 14.6409 14.0302 14.8472 13.4518C15.0537 12.8735 15.0537 12.3777 14.9918 12.2741C14.9299 12.1709 14.7647 12.1089 14.517 11.9851C14.2693 11.8613 13.0514 11.2619 12.8243 11.1792C12.5972 11.0966 12.4321 11.0554 12.2669 11.3035C12.1017 11.5511 11.6274 12.1089 11.4828 12.2741C11.3383 12.4397 11.1937 12.4603 10.9461 12.3364C10.6982 12.2121 9.90048 11.9509 8.95402 11.1071C8.21763 10.4505 7.72048 9.63966 7.57597 9.39163C7.43147 9.14399 7.5605 9.00975 7.68471 8.88631C7.796 8.77533 7.9325 8.59706 8.05648 8.45248C8.17999 8.30781 8.22121 8.2046 8.30381 8.03941C8.38648 7.87405 8.34511 7.72939 8.28327 7.60549C8.22121 7.48159 7.73985 6.25653 7.51959 5.76678Z" fill="white"/>
<defs>
<linearGradient id="paint0_linear_25_969" x1="961.402" y1="1931.11" x2="961.402" y2="0.346191" gradientUnits="userSpaceOnUse">
<stop stop-color="#1FAF38"/>
<stop offset="1" stop-color="#60D669"/>
</linearGradient>
<linearGradient id="paint1_linear_25_969" x1="995.539" y1="2000" x2="995.539" y2="0" gradientUnits="userSpaceOnUse">
<stop stop-color="#F9F9F9"/>
<stop offset="1" stop-color="white"/>
</linearGradient>
</defs>
</svg>
