<svg viewBox="0 0 25 25" fill="none" xmlns="http://www.w3.org/2000/svg">
<path d="M5.85938 0.5H19.1406C22.1005 0.5 24.5 2.89947 24.5 5.85938V19.1406C24.5 22.1005 22.1005 24.5 19.1406 24.5H5.85938C2.89947 24.5 0.5 22.1005 0.5 19.1406V5.85938C0.5 2.89947 2.89947 0.5 5.85938 0.5Z" fill="url(#paint0_radial_25_965)" stroke="#F9F9F9"/>
<path d="M5.85938 0.5H19.1406C22.1005 0.5 24.5 2.89947 24.5 5.85938V19.1406C24.5 22.1005 22.1005 24.5 19.1406 24.5H5.85938C2.89947 24.5 0.5 22.1005 0.5 19.1406V5.85938C0.5 2.89947 2.89947 0.5 5.85938 0.5Z" fill="url(#paint1_radial_25_965)" stroke="#F9F9F9"/>
<path d="M12.499 3.23438C15.1479 3.23438 15.4712 3.24517 16.501 3.29199V3.29297C17.4934 3.33837 18.1499 3.49325 18.7158 3.71289V3.71387C19.298 3.93951 19.7816 4.23574 20.2725 4.72656C20.7623 5.21606 21.0591 5.70045 21.2861 6.28223V6.2832C21.4772 6.77737 21.6206 7.3415 21.6846 8.13965L21.707 8.49707C21.7533 9.52675 21.7656 9.8518 21.7656 12.5C21.7656 15.1489 21.7533 15.4728 21.707 16.5029C21.6604 17.4949 21.5045 18.1508 21.2861 18.7158C21.0874 19.2252 20.8357 19.66 20.4473 20.0889L20.2725 20.2725C19.7822 20.7633 19.2975 21.0612 18.7158 21.2871C18.1513 21.5065 17.4953 21.6615 16.5029 21.707C15.4727 21.7539 15.1496 21.7656 12.5 21.7656C10.5128 21.7656 9.83361 21.7594 9.18359 21.7363L8.49609 21.707C7.50403 21.6615 6.84869 21.5065 6.28418 21.2871C5.70255 21.0611 5.21773 20.7631 4.72754 20.2725H4.72656C4.23629 19.7823 3.93923 19.2973 3.71289 18.7148C3.52105 18.2212 3.37875 17.6576 3.31543 16.8594L3.29297 16.5029C3.24622 15.4727 3.23438 15.1494 3.23438 12.5C3.23438 9.85121 3.2469 9.52638 3.29297 8.49609C3.33761 7.50434 3.49297 6.84817 3.71289 6.28418C3.91157 5.77439 4.16395 5.33941 4.55273 4.91016L4.72754 4.72656C5.15648 4.29746 5.58152 4.01682 6.07129 3.80176L6.28516 3.71289C6.77874 3.52091 7.34238 3.37863 8.14062 3.31543L8.49707 3.29297C9.52704 3.24613 9.85129 3.23438 12.499 3.23438ZM11.624 3.99219C10.2554 3.99373 9.71258 4.00057 9.14258 4.02148L8.53223 4.04688C7.77687 4.08158 7.26676 4.18676 6.89258 4.30176L6.55957 4.41797C6.04042 4.62006 5.65604 4.86946 5.26465 5.26074C4.87323 5.65208 4.62377 6.03692 4.42188 6.55664C4.26893 6.95049 4.09785 7.52036 4.05176 8.52734C4.00445 9.56844 3.99512 9.88555 3.99512 12.4951C3.99512 15.1049 4.00445 15.4237 4.05176 16.4648C4.09763 17.472 4.26888 18.042 4.42188 18.4355V18.4365C4.62411 18.956 4.87355 19.3393 5.26465 19.7305C5.65622 20.122 6.04116 20.3714 6.56055 20.5732V20.5742C6.95451 20.7271 7.52456 20.8968 8.53125 20.9434H8.53223C9.573 20.9907 9.89122 21.001 12.501 21.001C15.1106 21.001 15.4288 20.9907 16.4697 20.9434C17.4755 20.8974 18.0461 20.7271 18.4404 20.5732L18.4414 20.5742C18.9615 20.3723 19.3451 20.1226 19.7363 19.7314C20.1274 19.3406 20.3771 18.9568 20.5791 18.4365C20.7321 18.0429 20.9031 17.4728 20.9492 16.4658C20.9965 15.425 21.0068 15.1064 21.0068 12.498C21.0068 9.8896 20.9965 9.5712 20.9492 8.53027C20.9033 7.52288 20.7321 6.95211 20.5791 6.55859C20.4022 6.10418 20.1889 5.75318 19.876 5.41016L19.7363 5.26367C19.3452 4.87219 18.9612 4.62274 18.4414 4.4209C18.0475 4.26792 17.477 4.09686 16.4697 4.05078C15.4284 4.00348 15.1103 3.99414 12.501 3.99414C12.3703 3.99414 12.245 3.99419 12.125 3.99414V3.99121L11.624 3.99219ZM12.501 7.98535C14.9942 7.98551 17.0156 10.0067 17.0156 12.5C17.0156 14.9934 14.9945 17.0146 12.501 17.0146C10.0075 17.0146 7.98633 14.9934 7.98633 12.5C7.98638 10.0066 10.0076 7.98535 12.501 7.98535ZM12.501 8.74512C10.427 8.74512 8.74615 10.426 8.74609 12.5C8.74609 14.5739 10.4271 16.2559 12.501 16.2559C14.5748 16.2558 16.2559 14.5739 16.2559 12.5C16.2558 10.426 14.5748 8.74517 12.501 8.74512ZM17.7139 6.61621H17.7236C18.0899 6.6215 18.3857 6.91962 18.3857 7.28711C18.3857 7.65791 18.0847 7.95893 17.7139 7.95898C17.343 7.95898 17.042 7.65794 17.042 7.28711C17.042 6.91647 17.3428 6.61621 17.7139 6.61621Z" fill="white" stroke="#F9F9F9"/>
<defs>
<radialGradient id="paint0_radial_25_965" cx="0" cy="0" r="1" gradientUnits="userSpaceOnUse" gradientTransform="translate(6.64062 26.9255) rotate(-90) scale(24.7769 23.0444)">
<stop stop-color="#FFDD55"/>
<stop offset="0.1" stop-color="#FFDD55"/>
<stop offset="0.5" stop-color="#FF543E"/>
<stop offset="1" stop-color="#C837AB"/>
</radialGradient>
<radialGradient id="paint1_radial_25_965" cx="0" cy="0" r="1" gradientUnits="userSpaceOnUse" gradientTransform="translate(-4.1876 1.80088) rotate(78.681) scale(11.0754 45.6531)">
<stop stop-color="#3771C8"/>
<stop offset="0.128" stop-color="#3771C8"/>
<stop offset="1" stop-color="#6600FF" stop-opacity="0"/>
</radialGradient>
</defs>
</svg>
