<svg viewBox="0 0 49 36" fill="none" xmlns="http://www.w3.org/2000/svg">
<rect width="49" height="36" rx="3" fill="#F9F9F9"/>
<path d="M14.8631 29.9446V28.2854C14.8631 27.6492 14.4759 27.2345 13.8121 27.2345C13.4803 27.2345 13.1207 27.3451 12.8718 27.7046C12.6783 27.4004 12.4018 27.2345 11.987 27.2345C11.7103 27.2345 11.4339 27.3174 11.2126 27.6216V27.2898H10.6318V29.9446H11.2126V28.4789C11.2126 28.0088 11.4615 27.7875 11.8488 27.7875C12.2358 27.7875 12.4295 28.0364 12.4295 28.4789V29.9446H13.0103V28.4789C13.0103 28.0088 13.2867 27.7875 13.6462 27.7875C14.0334 27.7875 14.2269 28.0364 14.2269 28.4789V29.9446H14.8631ZM23.4636 27.2898H22.5235V26.4878H21.9427V27.2898H21.4173V27.8151H21.9426V29.032C21.9426 29.6405 22.1915 29.9999 22.8553 29.9999C23.1042 29.9999 23.3806 29.917 23.5743 29.8064L23.4083 29.3085C23.2424 29.4191 23.0489 29.4469 22.9106 29.4469C22.6341 29.4469 22.5235 29.281 22.5235 29.0043V27.8151H23.4636V27.2898ZM28.3862 27.2343C28.0544 27.2343 27.8332 27.4004 27.6949 27.6216V27.2898H27.1141V29.9446H27.6949V28.4513C27.6949 28.0088 27.8884 27.7599 28.2479 27.7599C28.3585 27.7599 28.4969 27.7876 28.6075 27.8152L28.7734 27.2622C28.6628 27.2345 28.4969 27.2345 28.3862 27.2345M20.9471 27.5111C20.6705 27.3175 20.2834 27.2346 19.8685 27.2346C19.2049 27.2346 18.7624 27.5664 18.7624 28.0919C18.7624 28.5344 19.0943 28.7832 19.675 28.8662L19.9515 28.894C20.2558 28.9491 20.4217 29.0321 20.4217 29.1705C20.4217 29.364 20.2005 29.5023 19.8132 29.5023C19.426 29.5023 19.1219 29.364 18.9282 29.2258L18.6517 29.6682C18.9559 29.8894 19.3708 30 19.7855 30C20.5599 30 21.0024 29.6406 21.0024 29.1428C21.0024 28.6726 20.6429 28.4237 20.0897 28.3408L19.8132 28.3131C19.5643 28.2854 19.3708 28.2302 19.3708 28.0643C19.3708 27.8707 19.5643 27.76 19.8685 27.76C20.2005 27.76 20.5323 27.8982 20.6982 27.9813L20.9471 27.5111ZM36.3785 27.2346C36.0466 27.2346 35.8254 27.4005 35.687 27.6217V27.2899H35.1063V29.9447H35.687V28.4514C35.687 28.009 35.8807 27.76 36.2401 27.76C36.3508 27.76 36.4891 27.7878 36.5997 27.8153L36.7657 27.2623C36.655 27.2346 36.4891 27.2346 36.3785 27.2346ZM28.967 28.6173C28.967 29.4193 29.52 30 30.3774 30C30.7645 30 31.0411 29.9171 31.3176 29.6959L31.0411 29.2258C30.8198 29.3917 30.5986 29.4746 30.3497 29.4746C29.8796 29.4746 29.5477 29.1428 29.5477 28.6173C29.5477 28.1196 29.8796 27.7876 30.3497 27.76C30.5986 27.76 30.8198 27.8429 31.0411 28.009L31.3176 27.5388C31.0411 27.3175 30.7645 27.2346 30.3774 27.2346C29.52 27.2346 28.967 27.8153 28.967 28.6173ZM34.3321 28.6173V27.2899H33.7513V27.6217C33.5577 27.3729 33.2812 27.2346 32.9216 27.2346C32.175 27.2346 31.5942 27.8153 31.5942 28.6173C31.5942 29.4193 32.175 30 32.9216 30C33.3088 30 33.5854 29.8618 33.7513 29.6129V29.9447H34.3321V28.6173ZM32.2026 28.6173C32.2026 28.1472 32.5068 27.76 33.0045 27.76C33.4747 27.76 33.8066 28.1196 33.8066 28.6173C33.8066 29.0875 33.4747 29.4746 33.0045 29.4746C32.5068 29.4469 32.2026 29.0875 32.2026 28.6173ZM25.2613 27.2346C24.4869 27.2346 23.9338 27.7876 23.9338 28.6173C23.9338 29.447 24.4868 30 25.2889 30C25.676 30 26.0632 29.8894 26.3675 29.6406L26.0908 29.2258C25.8696 29.3917 25.5931 29.5023 25.3166 29.5023C24.9571 29.5023 24.5975 29.3364 24.5145 28.8661H26.4781V28.645C26.5058 27.7876 26.0081 27.2346 25.2613 27.2346ZM25.2612 27.7323C25.6206 27.7323 25.8696 27.9537 25.9248 28.3685H24.5421C24.5974 28.009 24.8463 27.7323 25.2612 27.7323ZM39.6693 28.6173V26.239H39.0885V27.6217C38.8949 27.3729 38.6184 27.2346 38.2588 27.2346C37.5122 27.2346 36.9314 27.8153 36.9314 28.6173C36.9314 29.4193 37.5122 30 38.2588 30C38.6461 30 38.9226 29.8618 39.0885 29.6129V29.9447H39.6693V28.6173ZM37.5399 28.6173C37.5399 28.1472 37.844 27.76 38.3419 27.76C38.812 27.76 39.1438 28.1196 39.1438 28.6173C39.1438 29.0875 38.812 29.4746 38.3419 29.4746C37.844 29.4469 37.5399 29.0875 37.5399 28.6173ZM18.1261 28.6173V27.2899H17.5454V27.6217C17.3518 27.3729 17.0752 27.2346 16.7157 27.2346C15.9691 27.2346 15.3883 27.8153 15.3883 28.6173C15.3883 29.4193 15.9691 30 16.7157 30C17.103 30 17.3795 29.8618 17.5454 29.6129V29.9447H18.1261V28.6173ZM15.9691 28.6173C15.9691 28.1472 16.2733 27.76 16.771 27.76C17.2412 27.76 17.5731 28.1196 17.5731 28.6173C17.5731 29.0875 17.2412 29.4746 16.771 29.4746C16.2733 29.4469 15.9691 29.0875 15.9691 28.6173Z" fill="black"/>
<path d="M20.7532 7.12939H29.4644V22.782H20.7532V7.12939Z" fill="#FF5F00"/>
<path d="M21.3065 14.9557C21.3065 11.7755 22.7998 8.95463 25.0951 7.12937C23.4082 5.80196 21.2789 5 18.9559 5C13.4524 5 9 9.45236 9 14.9557C9 20.4591 13.4524 24.9115 18.9557 24.9115C21.2787 24.9115 23.4081 24.1095 25.0951 22.782C22.7998 20.9844 21.3065 18.136 21.3065 14.9557Z" fill="#EB001B"/>
<path d="M41.2181 14.9557C41.2181 20.459 36.7657 24.9115 31.2624 24.9115C28.9394 24.9115 26.81 24.1095 25.123 22.782C27.446 20.9568 28.9118 18.136 28.9118 14.9557C28.9118 11.7755 27.4183 8.95463 25.123 7.12937C26.8099 5.80196 28.9394 5 31.2624 5C36.7657 5 41.2181 9.48008 41.2181 14.9557Z" fill="#F79E1B"/>
</svg>
