<svg viewBox="0 0 38 36" fill="none" xmlns="http://www.w3.org/2000/svg">
<rect width="38" height="36" rx="3" fill="#F9F9F9"/>
<path d="M28.0386 6.88508C26.881 5.56566 24.7885 5 22.1115 5H14.3422C14.0774 4.99996 13.8212 5.09443 13.6197 5.26643C13.4183 5.43842 13.2848 5.67665 13.2434 5.93826L10.0084 26.4553C9.94409 26.8599 10.2574 27.2263 10.6674 27.2263H15.4639L16.6685 19.5857L16.6311 19.8249C16.717 19.2848 17.1789 18.8865 17.7258 18.8865H20.0051C24.4827 18.8865 27.9888 17.0678 29.013 11.8067C29.0434 11.6511 29.0697 11.4996 29.0925 11.3517C28.9632 11.2832 28.9632 11.2832 29.0925 11.3517C29.3974 9.4071 29.0904 8.08345 28.0386 6.88508Z" fill="#27346A"/>
<path d="M18.5038 10.6512C18.6349 10.5886 18.7784 10.5563 18.9236 10.5565H25.0146C25.7359 10.5565 26.4086 10.6034 27.0234 10.7023C27.1954 10.7298 27.3665 10.7625 27.5365 10.8005C27.7775 10.8537 28.0156 10.9188 28.2502 10.9955C28.5524 11.0965 28.8338 11.214 29.0925 11.3517C29.3974 9.40635 29.0904 8.08345 28.0386 6.88508C26.8803 5.56566 24.7885 5 22.1115 5H14.3416C13.7945 5 13.3291 5.39827 13.2434 5.93826L10.0084 26.4546C9.94409 26.8598 10.2574 27.2257 10.6668 27.2257H15.4639L17.9631 11.3773C17.9877 11.2215 18.0498 11.074 18.1439 10.9475C18.2381 10.8211 18.3616 10.7194 18.5038 10.6512Z" fill="#27346A"/>
<path d="M29.0126 11.8066C27.9885 17.0669 24.4825 18.8864 20.0048 18.8864H17.7248C17.1779 18.8864 16.7159 19.2847 16.6309 19.8248L15.1323 29.325C15.0763 29.6791 15.3501 29.9999 15.7083 29.9999H19.7516C19.9833 29.9998 20.2073 29.9171 20.3833 29.7667C20.5594 29.6162 20.6761 29.4079 20.7123 29.1791L20.7516 28.9731L21.5137 24.1434L21.5628 23.8764C21.599 23.6477 21.7156 23.4394 21.8917 23.2889C22.0677 23.1384 22.2917 23.0557 22.5233 23.0557H23.1284C27.0452 23.0557 30.1121 21.4644 31.0084 16.8623C31.3825 14.9391 31.1889 13.3334 30.1993 12.2056C29.8991 11.864 29.5264 11.5818 29.0921 11.3516C29.0686 11.5003 29.0431 11.651 29.0126 11.8066Z" fill="#2790C3"/>
<path d="M28.0206 10.9243C27.861 10.8777 27.6998 10.8364 27.5373 10.8006C27.3672 10.7632 27.1961 10.7306 27.0242 10.703C26.4087 10.6034 25.7365 10.5564 25.0145 10.5564H18.9243C18.779 10.5562 18.6355 10.5888 18.5045 10.6519C18.3622 10.7198 18.2385 10.8214 18.1442 10.948C18.05 11.0745 17.988 11.2221 17.9637 11.3779L16.6692 19.5857L16.6318 19.8249C16.717 19.2849 17.1789 18.8865 17.7259 18.8865H20.0059C24.4835 18.8865 27.9895 17.0678 29.0137 11.8067C29.0441 11.6511 29.0697 11.5003 29.0932 11.3517C28.8339 11.2149 28.5531 11.0964 28.2509 10.9962C28.1746 10.9709 28.0979 10.947 28.0207 10.9243" fill="#1F264F"/>
</svg>
