<svg viewBox="0 0 32 32" fill="none" xmlns="http://www.w3.org/2000/svg">
<path d="M7.44201 15.2608L10.4146 16.2516C12.3795 16.9052 13.3598 17.234 14.0639 17.9382C14.7681 18.6423 15.0969 19.6248 15.7505 21.5854L16.7414 24.558C18.3942 29.5207 19.2206 32 20.7406 32C22.2586 32 23.0871 29.5207 24.7399 24.558L30.7231 6.61284C31.8868 3.12163 32.4687 1.37603 31.5474 0.454737C30.6261 -0.466555 28.8805 0.115313 25.3914 1.27694L7.4399 7.26428C2.48348 8.91501 0 9.74144 0 11.2615C0 12.7815 2.48137 13.6079 7.44201 15.2608Z" fill="#245975"/>
<path d="M11.3083 19.3615L6.96119 17.9131C6.657 17.8117 6.33368 17.781 6.01585 17.8234C5.69801 17.8658 5.39403 17.9801 5.12704 18.1577L2.82908 19.6882C2.55706 19.8695 2.34356 20.1259 2.21455 20.4262C2.08554 20.7265 2.04659 21.0579 2.10243 21.3799C2.15826 21.702 2.30648 22.0009 2.52906 22.2403C2.75164 22.4797 3.03898 22.6492 3.35613 22.7283L7.4777 23.7571C7.66317 23.8034 7.83256 23.8993 7.96774 24.0345C8.10292 24.1696 8.19879 24.339 8.24509 24.5245L9.2739 28.6461C9.35299 28.9632 9.52253 29.2506 9.76191 29.4731C10.0013 29.6957 10.3002 29.8439 10.6223 29.8998C10.9443 29.9556 11.2757 29.9167 11.576 29.7877C11.8763 29.6586 12.1327 29.4451 12.314 29.1731L13.8445 26.8752C14.0221 26.6082 14.1364 26.3042 14.1788 25.9864C14.2212 25.6685 14.1905 25.3452 14.0891 25.041L12.6407 20.6939C12.5372 20.3837 12.3629 20.1018 12.1317 19.8705C11.9004 19.6393 11.6185 19.465 11.3083 19.3615Z" fill="#FCBE11"/>
</svg>
