<svg viewBox="0 0 84 36" fill="none" xmlns="http://www.w3.org/2000/svg">
<rect width="84" height="36" rx="3" fill="#F9F9F9"/>
<path d="M40.1076 13.8064C40.0645 17.2081 43.1391 19.1062 45.4552 20.2348C47.8348 21.3927 48.6341 22.1353 48.6247 23.1709C48.6069 24.7556 46.7266 25.4551 44.967 25.4823C41.8971 25.5298 40.1121 24.6534 38.6931 23.9906L37.5871 29.1654C39.0109 29.8214 41.6472 30.3936 44.3809 30.4187C50.7981 30.4187 54.9963 27.251 55.0191 22.3397C55.0442 16.1066 46.3975 15.7616 46.4566 12.9755C46.477 12.1307 47.2831 11.2292 49.0494 11C49.9238 10.8842 52.3373 10.7956 55.0737 12.0557L56.1477 7.049C54.6762 6.51317 52.7848 6.0001 50.43 6.0001C44.3901 6.0001 40.1419 9.21089 40.1076 13.8064ZM66.4678 6.43135C65.296 6.43135 64.3085 7.11486 63.8678 8.16376L54.7013 30.051H61.1137L62.3898 26.5244H70.2256L70.9659 30.051H76.6177L71.6857 6.43135H66.4678ZM67.3649 12.8119L69.2154 21.6813H64.1473L67.3649 12.8119ZM32.3329 6.43165L27.2783 30.0507H33.3889L38.4411 6.43106L32.3329 6.43165ZM23.2933 6.43165L16.9332 22.5078L14.3604 8.83842C14.0585 7.31248 12.8664 6.43135 11.5425 6.43135H1.14562L1 7.11723C3.13443 7.58039 5.55951 8.32741 7.02874 9.12671C7.92788 9.61497 8.18427 10.0418 8.47965 11.2021L13.3526 30.051H19.8099L29.7099 6.43135L23.2933 6.43165Z" fill="url(#paint0_linear_19_1057)"/>
<defs>
<linearGradient id="paint0_linear_19_1057" x1="3477.45" y1="79.4024" x2="3548.13" y2="-2428.42" gradientUnits="userSpaceOnUse">
<stop stop-color="#222357"/>
<stop offset="1" stop-color="#254AA5"/>
</linearGradient>
</defs>
</svg>
