<svg viewBox="0 0 36 25" fill="none" xmlns="http://www.w3.org/2000/svg">
<mask id="path-1-inside-1_25_962" fill="white">
<path d="M34.9095 3.91474C34.7048 3.15802 34.3053 2.46814 33.751 1.91383C33.1966 1.35952 32.5067 0.96013 31.75 0.755439C28.9795 0 17.8305 0 17.8305 0C17.8305 0 6.68102 0.0229252 3.911 0.778364C3.1543 0.983089 2.46444 1.3825 1.91014 1.9368C1.35583 2.49111 0.956427 3.18097 0.751702 3.93767C-0.0862662 8.86003 -0.411366 16.3601 0.774627 21.0853C0.979352 21.842 1.37876 22.5318 1.93306 23.0861C2.48737 23.6404 3.17723 24.0398 3.93393 24.2446C6.70416 25 17.8534 25 17.8534 25C17.8534 25 29.0027 25 31.7729 24.2446C32.5296 24.0398 33.2195 23.6404 33.7738 23.0861C34.3281 22.5318 34.7275 21.842 34.9322 21.0853C35.8158 16.1561 36.0883 8.66069 34.9093 3.91496"/>
</mask>
<path d="M34.9095 3.91474C34.7048 3.15802 34.3053 2.46814 33.751 1.91383C33.1966 1.35952 32.5067 0.96013 31.75 0.755439C28.9795 0 17.8305 0 17.8305 0C17.8305 0 6.68102 0.0229252 3.911 0.778364C3.1543 0.983089 2.46444 1.3825 1.91014 1.9368C1.35583 2.49111 0.956427 3.18097 0.751702 3.93767C-0.0862662 8.86003 -0.411366 16.3601 0.774627 21.0853C0.979352 21.842 1.37876 22.5318 1.93306 23.0861C2.48737 23.6404 3.17723 24.0398 3.93393 24.2446C6.70416 25 17.8534 25 17.8534 25C17.8534 25 29.0027 25 31.7729 24.2446C32.5296 24.0398 33.2195 23.6404 33.7738 23.0861C34.3281 22.5318 34.7275 21.842 34.9322 21.0853C35.8158 16.1561 36.0883 8.66069 34.9093 3.91496" fill="#FF0000"/>
<path d="M31.75 0.755439L31.4869 1.72022L31.4889 1.72075L31.75 0.755439ZM17.8305 0V-1L17.8284 -0.999998L17.8305 0ZM3.911 0.778364L4.17216 1.74366L4.17412 1.74313L3.911 0.778364ZM0.751702 3.93767L-0.213594 3.67651L-0.226087 3.72269L-0.234115 3.76985L0.751702 3.93767ZM0.774627 21.0853L-0.195288 21.3287L-0.193059 21.3376L-0.190668 21.3464L0.774627 21.0853ZM3.93393 24.2446L4.19702 23.2798L4.19509 23.2793L3.93393 24.2446ZM17.8534 25V24V25ZM31.7729 24.2446L31.5117 23.2793L31.5098 23.2798L31.7729 24.2446ZM34.9322 21.0853L35.8975 21.3464L35.9089 21.3045L35.9165 21.2617L34.9322 21.0853ZM34.9095 3.91474L35.8748 3.65357C35.6244 2.72819 35.136 1.88455 34.4581 1.2067L33.751 1.91383L33.0439 2.62096C33.4747 3.05173 33.7851 3.58785 33.9442 4.17592L34.9095 3.91474ZM33.751 1.91383L34.4581 1.2067C33.7802 0.528848 32.9365 0.0404416 32.0111 -0.209871L31.75 0.755439L31.4889 1.72075C32.077 1.87982 32.6131 2.1902 33.0439 2.62096L33.751 1.91383ZM31.75 0.755439L32.0131 -0.209337C31.2148 -0.427016 29.907 -0.572927 28.4801 -0.67857C27.0246 -0.786337 25.3549 -0.857699 23.7814 -0.905116C22.2063 -0.952583 20.7193 -0.976289 19.6267 -0.988137C19.0801 -0.994064 18.6317 -0.997029 18.3197 -0.998513C18.1637 -0.999255 18.0417 -0.999627 17.9586 -0.999813C17.9171 -0.999906 17.8852 -0.999953 17.8636 -0.999976C17.8529 -0.999988 17.8447 -0.999994 17.8391 -0.999997C17.8363 -0.999998 17.8342 -0.999999 17.8328 -1C17.8321 -1 17.8315 -1 17.8311 -1C17.8309 -1 17.8308 -1 17.8307 -1C17.8306 -1 17.8305 -1 17.8305 0C17.8305 1 17.8305 1 17.8306 1C17.8306 1 17.8307 1 17.8309 1C17.8312 1 17.8316 1 17.8323 1C17.8335 1 17.8355 1 17.838 1C17.8432 1.00001 17.8511 1.00001 17.8615 1.00002C17.8823 1.00005 17.9134 1.00009 17.9541 1.00018C18.0357 1.00036 18.156 1.00073 18.3102 1.00146C18.6187 1.00293 19.063 1.00587 19.605 1.01174C20.6893 1.0235 22.1628 1.04701 23.7212 1.09398C25.2813 1.14099 26.9183 1.21127 28.3324 1.31597C29.7752 1.4228 30.9 1.56017 31.4869 1.72021L31.75 0.755439ZM17.8305 0C17.8284 -0.999998 17.8284 -0.999998 17.8282 -0.999997C17.8281 -0.999997 17.828 -0.999997 17.8278 -0.999997C17.8274 -0.999996 17.8269 -0.999994 17.8261 -0.999993C17.8247 -0.999989 17.8226 -0.999984 17.8198 -0.999977C17.8143 -0.999963 17.8061 -0.99994 17.7953 -0.999906C17.7737 -0.999839 17.7419 -0.999727 17.7003 -0.999549C17.6172 -0.999193 17.4952 -0.998574 17.3392 -0.997517C17.0272 -0.995402 16.5788 -0.991538 16.0323 -0.984532C14.9396 -0.970526 13.4526 -0.943942 11.8776 -0.893597C10.3041 -0.843304 8.63455 -0.769051 7.1792 -0.659115C5.75233 -0.551331 4.44529 -0.403867 3.64789 -0.186402L3.911 0.778364L4.17412 1.74313C4.76173 1.58288 5.88712 1.44418 7.32985 1.3352C8.74408 1.22837 10.3813 1.15525 11.9415 1.10538C13.5 1.05557 14.9735 1.0292 16.0579 1.0153C16.5999 1.00836 17.0442 1.00453 17.3528 1.00244C17.507 1.00139 17.6273 1.00078 17.7089 1.00043C17.7497 1.00026 17.7808 1.00015 17.8016 1.00008C17.812 1.00005 17.8198 1.00003 17.825 1.00002C17.8276 1.00001 17.8295 1 17.8308 1C17.8314 1 17.8319 0.999999 17.8322 0.999999C17.8323 0.999998 17.8324 0.999998 17.8325 0.999998C17.8325 0.999998 17.8325 0.999998 17.8305 0ZM3.911 0.778364L3.64984 -0.186932C2.72449 0.0634217 1.88088 0.551847 1.20303 1.22969L1.91014 1.9368L2.61725 2.64391C3.04801 2.21314 3.58411 1.90276 4.17216 1.74366L3.911 0.778364ZM1.91014 1.9368L1.20303 1.22969C0.525184 1.90754 0.0367593 2.75116 -0.213594 3.67651L0.751702 3.93767L1.717 4.19883C1.87609 3.61078 2.18648 3.07467 2.61725 2.64391L1.91014 1.9368ZM0.751702 3.93767L-0.234115 3.76985C-1.08231 8.7523 -1.42988 16.4099 -0.195288 21.3287L0.774627 21.0853L1.74454 20.8418C0.607142 16.3102 0.90978 8.96776 1.73752 4.10549L0.751702 3.93767ZM0.774627 21.0853L-0.190668 21.3464C0.0596843 22.2718 0.548108 23.1154 1.22596 23.7932L1.93306 23.0861L2.64017 22.379C2.20941 21.9483 1.89902 21.4121 1.73992 20.8241L0.774627 21.0853ZM1.93306 23.0861L1.22596 23.7932C1.9038 24.4711 2.74742 24.9595 3.67277 25.2099L3.93393 24.2446L4.19509 23.2793C3.60704 23.1202 3.07093 22.8098 2.64017 22.379L1.93306 23.0861ZM3.93393 24.2446L3.67084 25.2093C4.4691 25.427 5.77688 25.5729 7.2037 25.6786C8.65923 25.7863 10.3289 25.8577 11.9024 25.9051C13.4775 25.9526 14.9645 25.9763 16.0572 25.9881C16.6038 25.9941 17.0522 25.997 17.3642 25.9985C17.5202 25.9993 17.6422 25.9996 17.7253 25.9998C17.7669 25.9999 17.7987 26 17.8203 26C17.831 26 17.8392 26 17.8448 26C17.8476 26 17.8497 26 17.8511 26C17.8518 26 17.8524 26 17.8528 26C17.853 26 17.8531 26 17.8532 26C17.8533 26 17.8534 26 17.8534 25C17.8534 24 17.8534 24 17.8534 24C17.8533 24 17.8532 24 17.853 24C17.8527 24 17.8523 24 17.8517 24C17.8504 24 17.8485 24 17.8459 24C17.8407 24 17.8328 24 17.8224 24C17.8016 24 17.7705 23.9999 17.7298 23.9998C17.6482 23.9996 17.5279 23.9993 17.3737 23.9985C17.0652 23.9971 16.6209 23.9941 16.0789 23.9883C14.9945 23.9765 13.5211 23.953 11.9626 23.906C10.4025 23.859 8.76546 23.7887 7.35138 23.684C5.90859 23.5772 4.78388 23.4398 4.19702 23.2798L3.93393 24.2446ZM17.8534 25C17.8534 26 17.8535 26 17.8536 26C17.8537 26 17.8539 26 17.8541 26C17.8544 26 17.855 26 17.8557 26C17.8572 26 17.8593 26 17.862 26C17.8676 26 17.8758 26 17.8866 26C17.9081 26 17.94 25.9999 17.9815 25.9998C18.0647 25.9996 18.1866 25.9993 18.3427 25.9985C18.6547 25.997 19.1031 25.9941 19.6496 25.9881C20.7423 25.9763 22.2293 25.9526 23.8044 25.9051C25.378 25.8577 27.0476 25.7863 28.5031 25.6786C29.93 25.5729 31.2377 25.427 32.036 25.2093L31.7729 24.2446L31.5098 23.2798C30.923 23.4398 29.7982 23.5772 28.3555 23.684C26.9414 23.7887 25.3043 23.859 23.7442 23.906C22.1858 23.953 20.7123 23.9765 19.6279 23.9883C19.086 23.9941 18.6417 23.9971 18.3331 23.9985C18.1789 23.9993 18.0586 23.9996 17.9771 23.9998C17.9363 23.9999 17.9052 24 17.8844 24C17.874 24 17.8662 24 17.861 24C17.8584 24 17.8564 24 17.8552 24C17.8546 24 17.8541 24 17.8538 24C17.8536 24 17.8536 24 17.8535 24C17.8534 24 17.8534 24 17.8534 25ZM31.7729 24.2446L32.0341 25.2099C32.9594 24.9595 33.803 24.4711 34.4809 23.7932L33.7738 23.0861L33.0667 22.379C32.6359 22.8098 32.0998 23.1202 31.5117 23.2793L31.7729 24.2446ZM33.7738 23.0861L34.4809 23.7932C35.1587 23.1154 35.6472 22.2718 35.8975 21.3464L34.9322 21.0853L33.9669 20.8241C33.8078 21.4121 33.4974 21.9483 33.0667 22.379L33.7738 23.0861ZM34.9322 21.0853L35.9165 21.2617C36.8135 16.2578 37.1055 8.60759 35.8798 3.67386L34.9093 3.91496L33.9388 4.15607C35.0711 8.71379 34.8181 16.0545 33.9479 20.9088L34.9322 21.0853Z" fill="#F9F9F9" mask="url(#path-1-inside-1_25_962)"/>
<path d="M14.2812 17.8569L23.5303 12.4999L14.2812 7.14258V17.8569Z" fill="white"/>
</svg>
